<svg id="svg" version="1.1" xmlns="http://www.w3.org/2000/svg" xmlns:xlink="http://www.w3.org/1999/xlink" width="400" height="137.85071466384332" viewBox="0, 0, 400,137.85071466384332"><g id="svgg"><path id="path0" d="M0.292 0.232 C -0.162 0.577,-0.162 137.257,0.292 137.601 C 0.746 137.946,399.417 137.940,399.762 137.595 C 400.180 137.177,400.114 0.655,399.695 0.276 C 399.277 -0.103,0.790 -0.146,0.292 0.232 M66.750 1.333 C 67.049 1.462,67.037 1.478,66.640 1.488 C 64.029 1.557,60.642 4.702,60.021 7.633 C 58.337 15.575,68.182 20.858,73.925 15.095 C 78.496 10.509,76.134 2.692,69.824 1.523 L 69.083 1.386 69.667 1.271 C 69.987 1.208,144.162 1.177,234.500 1.203 L 398.750 1.250 398.750 68.917 L 398.750 136.583 200.000 136.583 L 1.250 136.583 1.208 98.694 C 1.181 74.392,1.224 60.706,1.328 60.528 C 1.460 60.300,1.491 60.335,1.495 60.719 C 1.530 63.975,6.318 67.636,10.077 67.280 C 18.745 66.459,20.915 55.661,13.137 52.054 C 8.510 49.908,2.171 53.007,1.538 57.724 C 1.466 58.263,1.420 58.337,1.318 58.078 C 1.162 57.677,1.122 1.434,1.278 1.278 C 1.444 1.112,66.363 1.167,66.750 1.333 M114.417 14.159 C 107.856 15.571,105.444 22.862,110.000 27.507 C 114.676 32.274,122.765 29.900,124.086 23.374 C 125.155 18.090,119.812 12.998,114.417 14.159 M21.250 15.402 C 14.624 17.043,12.987 25.862,18.585 29.750 C 24.037 33.538,31.667 29.755,31.667 23.265 C 31.667 17.910,26.590 14.078,21.250 15.402 M301.500 46.008 C 297.193 46.528,295.767 49.072,294.916 57.750 C 294.773 59.217,294.584 60.867,294.498 61.417 C 294.412 61.967,294.263 63.279,294.166 64.333 C 294.069 65.387,293.916 66.737,293.826 67.333 C 293.736 67.929,293.511 69.804,293.327 71.500 C 292.463 79.450,292.325 80.668,292.148 81.885 C 291.668 85.190,292.623 86.108,296.388 85.964 C 299.953 85.827,300.212 85.518,300.674 80.848 C 300.843 79.144,301.026 77.450,301.081 77.083 C 301.136 76.717,301.326 74.917,301.504 73.083 C 301.681 71.250,302.019 67.912,302.254 65.667 C 302.489 63.421,302.810 60.300,302.967 58.732 C 303.145 56.952,303.338 55.778,303.480 55.607 C 303.853 55.158,304.326 55.273,304.574 55.875 C 304.792 56.403,306.186 63.156,307.495 70.028 C 307.664 70.915,307.846 71.777,307.899 71.945 C 307.952 72.113,308.142 73.037,308.320 74.000 C 310.202 84.134,310.776 85.130,315.109 85.775 C 320.809 86.623,323.091 84.390,324.249 76.833 C 324.312 76.421,324.466 75.633,324.591 75.083 C 324.833 74.022,325.158 72.418,325.658 69.833 C 325.826 68.962,326.355 66.337,326.834 64.000 C 327.312 61.663,327.870 58.874,328.072 57.804 C 328.452 55.788,328.657 55.333,329.183 55.333 C 329.744 55.333,329.954 56.003,330.152 58.417 C 330.258 59.700,330.417 61.275,330.506 61.917 C 330.594 62.558,330.816 64.621,330.997 66.500 C 331.179 68.379,331.514 71.717,331.742 73.917 C 331.970 76.117,332.297 79.267,332.468 80.917 C 332.946 85.521,333.386 86.008,337.048 85.993 C 339.388 85.983,340.273 85.674,340.820 84.678 L 341.225 83.939 340.944 81.594 C 340.539 78.229,340.212 75.357,339.830 71.833 C 339.646 70.137,339.458 68.525,339.411 68.250 C 339.364 67.975,339.176 66.362,338.992 64.667 C 337.770 53.386,337.518 51.615,336.931 50.169 C 335.594 46.878,332.790 45.492,328.466 45.985 C 324.419 46.446,322.758 48.666,321.472 55.333 C 320.632 59.693,320.154 62.107,319.656 64.500 C 319.474 65.371,318.918 68.153,318.418 70.684 C 317.404 75.822,317.335 76.065,316.810 76.346 C 316.329 76.603,315.731 75.969,315.579 75.041 C 315.523 74.698,315.340 73.779,315.171 73.000 C 315.003 72.221,314.817 71.283,314.759 70.917 C 314.701 70.550,314.509 69.575,314.333 68.750 C 314.157 67.925,313.888 66.612,313.735 65.833 C 313.581 65.054,313.315 63.704,313.142 62.833 C 312.969 61.962,312.688 60.538,312.517 59.667 C 311.631 55.162,311.448 54.283,311.074 52.730 C 310.015 48.336,308.248 46.438,304.816 46.008 C 303.290 45.816,303.086 45.816,301.500 46.008 M157.123 46.572 C 156.308 46.863,155.998 47.132,155.724 47.786 C 155.335 48.718,155.399 83.881,155.792 84.667 C 156.668 86.421,162.312 86.503,163.573 84.779 C 163.914 84.312,163.917 84.196,163.961 66.558 C 164.009 47.774,164.011 47.833,163.218 47.098 C 162.408 46.346,158.661 46.023,157.123 46.572 M350.250 46.481 C 349.487 46.677,349.059 47.004,348.677 47.684 C 348.133 48.652,348.213 84.030,348.761 84.779 C 349.938 86.389,355.344 86.448,356.420 84.864 L 356.833 84.256 356.833 66.170 C 356.832 45.878,356.927 47.417,355.632 46.721 C 355.031 46.397,351.232 46.228,350.250 46.481 M210.083 49.427 C 208.830 50.061,208.917 48.958,208.917 64.250 L 208.917 77.917 209.316 79.167 C 211.062 84.633,215.008 86.891,221.841 86.333 C 227.123 85.901,228.321 85.113,228.330 82.067 C 228.337 79.239,227.460 78.687,223.798 79.214 C 221.317 79.571,219.461 79.245,218.429 78.272 C 217.387 77.290,217.324 76.758,217.373 69.409 L 217.417 62.917 222.167 62.833 C 228.215 62.727,228.333 62.662,228.333 59.450 C 228.333 56.309,228.161 56.218,222.083 56.129 L 217.417 56.061 217.325 53.489 C 217.180 49.414,216.937 49.166,213.083 49.171 C 211.185 49.173,210.463 49.235,210.083 49.427 M270.570 49.322 C 269.102 49.940,269.140 49.512,269.205 64.667 C 269.267 79.312,269.208 78.576,270.529 81.303 C 272.525 85.426,278.282 87.392,284.551 86.093 C 288.162 85.344,288.722 84.797,288.740 82.000 C 288.757 79.326,288.006 78.792,284.757 79.166 C 281.518 79.539,279.773 79.253,278.726 78.178 C 277.803 77.229,277.750 76.761,277.750 69.500 L 277.750 62.917 282.500 62.833 C 286.913 62.756,287.282 62.726,287.706 62.417 C 289.172 61.344,289.253 57.842,287.840 56.583 C 287.491 56.273,287.138 56.242,282.791 56.133 C 277.027 55.989,277.667 56.302,277.666 53.630 C 277.665 51.059,277.525 50.413,276.824 49.741 L 276.312 49.250 273.615 49.213 C 272.131 49.193,270.761 49.242,270.570 49.322 M127.351 52.180 C 124.527 52.735,121.793 55.449,121.188 58.300 C 119.664 65.475,127.716 70.762,133.948 66.678 C 141.506 61.726,136.358 50.412,127.351 52.180 M184.000 55.662 C 177.352 56.407,173.929 59.438,172.798 65.583 C 172.481 67.308,172.490 83.863,172.809 84.619 C 173.545 86.361,179.393 86.494,180.422 84.792 C 180.734 84.277,180.754 83.821,180.836 75.583 C 180.931 65.975,180.950 65.814,182.129 64.356 C 184.057 61.975,190.575 61.894,192.623 64.226 C 193.898 65.678,193.904 65.722,193.998 75.530 C 194.104 86.412,193.909 85.917,198.083 85.917 C 202.444 85.917,202.237 86.382,202.303 76.417 C 202.375 65.373,202.116 63.433,200.173 60.475 C 197.661 56.650,191.515 54.821,184.000 55.662 M235.627 56.156 C 232.778 56.340,232.768 56.381,232.883 67.167 C 233.005 78.735,233.650 81.173,237.293 83.865 C 242.768 87.910,255.982 87.138,259.783 82.552 C 262.349 79.456,262.693 77.649,262.790 66.735 C 262.887 55.702,262.959 55.855,257.820 56.083 C 254.257 56.241,254.350 55.964,254.341 66.450 C 254.332 75.687,254.253 76.376,253.045 77.754 C 250.937 80.159,244.072 79.961,242.372 77.446 C 241.276 75.825,241.269 75.756,241.201 66.295 C 241.121 55.266,241.405 55.784,235.627 56.156 M21.433 92.004 C 14.115 93.859,12.854 103.255,19.459 106.715 C 24.943 109.588,31.667 105.752,31.667 99.750 C 31.667 94.546,26.584 90.699,21.433 92.004 M110.333 93.062 C 106.623 93.873,103.724 97.695,104.059 101.333 C 104.817 109.582,116.206 111.557,119.845 104.072 C 122.770 98.058,117.163 91.568,110.333 93.062 M66.333 109.568 C 60.196 110.955,57.943 118.494,62.364 122.849 C 66.273 126.701,72.959 125.808,75.578 121.083 C 78.953 114.992,73.329 107.987,66.333 109.568 " stroke="none" fill="#71349f" fill-rule="evenodd"></path><path id="path1" d="M66.564 20.894 C 62.267 21.975,60.785 27.246,63.902 30.362 C 67.469 33.930,73.685 31.436,73.708 26.427 C 73.725 22.712,70.198 19.980,66.564 20.894 M101.083 27.644 C 97.603 28.560,95.756 32.405,97.295 35.530 C 99.987 40.999,108.261 39.149,108.236 33.083 C 108.222 29.515,104.559 26.730,101.083 27.644 M35.750 28.845 C 32.995 29.212,30.930 31.597,30.937 34.403 C 30.951 40.526,39.279 42.274,41.915 36.708 C 43.806 32.716,40.296 28.239,35.750 28.845 M66.389 36.799 C 61.002 38.722,62.414 46.083,68.167 46.072 C 74.896 46.059,75.217 36.877,68.500 36.551 C 67.583 36.507,67.020 36.573,66.389 36.799 M86.722 39.964 C 83.257 41.206,82.194 45.216,84.639 47.821 C 87.803 51.191,93.742 49.077,93.734 44.583 C 93.728 41.219,90.026 38.780,86.722 39.964 M48.100 41.099 C 42.161 42.536,43.211 50.860,49.335 50.891 C 55.576 50.924,56.572 42.525,50.496 41.093 C 49.234 40.795,49.357 40.795,48.100 41.099 M25.624 54.504 C 21.262 55.603,19.715 60.799,22.806 63.972 C 26.525 67.790,33.048 64.854,32.623 59.552 C 32.357 56.245,28.825 53.698,25.624 54.504 M110.333 54.823 C 105.667 56.247,104.844 62.513,108.987 65.066 C 113.475 67.831,119.196 63.371,117.509 58.423 C 116.574 55.679,113.152 53.962,110.333 54.823 M95.266 55.441 C 92.764 56.209,91.268 59.640,92.397 62.019 C 93.934 65.256,98.670 65.955,101.102 63.304 C 104.694 59.390,100.557 53.817,95.266 55.441 M40.825 55.550 C 38.646 56.168,37.167 58.069,37.167 60.250 C 37.167 64.774,43.138 66.864,46.291 63.443 C 49.678 59.769,45.781 54.143,40.825 55.550 M68.917 57.286 C 65.454 57.890,63.755 60.730,65.234 63.443 C 67.527 67.649,73.978 65.537,73.268 60.813 C 72.985 58.924,70.601 56.992,68.917 57.286 M86.658 72.050 C 83.574 72.925,81.927 76.403,83.408 78.912 C 86.130 83.520,93.500 81.941,93.500 76.750 C 93.500 73.496,90.010 71.098,86.658 72.050 M47.555 72.799 C 45.447 73.552,44.191 75.241,44.174 77.345 C 44.131 82.744,51.945 84.230,54.193 79.250 C 55.922 75.421,51.701 71.318,47.555 72.799 M67.083 78.388 C 61.558 80.216,62.534 87.697,68.333 87.970 C 74.054 88.240,75.952 81.233,70.853 78.671 C 69.943 78.214,68.042 78.071,67.083 78.388 M36.333 82.667 C 31.155 83.625,30.127 90.816,34.822 93.244 C 37.631 94.697,41.239 93.487,42.702 90.601 C 44.777 86.510,40.999 81.803,36.333 82.667 M98.395 82.839 C 94.826 83.546,92.691 87.727,94.329 90.800 C 96.643 95.142,102.626 95.151,104.719 90.816 C 106.740 86.631,103.009 81.926,98.395 82.839 M66.460 93.600 C 62.666 94.766,61.213 99.422,63.684 102.496 C 66.136 105.548,70.965 105.253,73.084 101.922 C 75.865 97.551,71.489 92.053,66.460 93.600 " stroke="none" fill="#f27b19" fill-rule="evenodd"></path><path id="path2" d="M1.344 29.458 C 1.354 52.427,1.394 57.461,1.567 56.917 C 4.389 48.018,17.917 50.024,17.917 59.341 C 17.917 64.165,14.697 67.250,9.667 67.247 C 5.713 67.245,2.882 65.365,1.659 61.931 C 1.367 61.108,1.357 62.197,1.346 98.792 L 1.333 136.500 200.000 136.500 L 398.667 136.500 398.667 68.917 L 398.667 1.333 234.417 1.333 C 144.079 1.333,70.167 1.368,70.167 1.410 C 70.167 1.453,70.485 1.572,70.875 1.676 C 75.772 2.981,78.119 9.641,75.180 13.894 C 70.412 20.795,59.736 17.639,59.754 9.333 C 59.763 5.602,61.562 3.226,65.667 1.528 C 65.956 1.409,56.175 1.352,33.708 1.345 L 1.333 1.333 1.344 29.458 M118.327 14.248 C 123.132 15.493,125.753 21.059,123.593 25.430 C 121.108 30.458,114.369 31.736,110.241 27.962 C 103.795 22.071,109.722 12.019,118.327 14.248 M25.323 15.180 C 29.042 15.978,31.839 19.427,31.830 23.205 C 31.811 30.519,22.714 34.142,17.426 28.941 C 11.540 23.152,17.124 13.422,25.323 15.180 M70.583 20.983 C 73.691 22.431,75.007 26.281,73.380 29.167 C 70.913 33.542,64.685 33.399,62.503 28.917 C 60.044 23.867,65.427 18.582,70.583 20.983 M104.430 27.453 C 106.710 27.985,108.500 30.454,108.500 33.067 C 108.500 40.941,96.808 41.196,96.528 33.329 C 96.375 29.055,99.940 26.405,104.430 27.453 M37.996 28.593 C 45.153 30.279,43.760 40.599,36.417 40.301 C 29.058 40.003,28.501 29.581,35.786 28.515 C 36.316 28.437,36.787 28.366,36.833 28.356 C 36.879 28.346,37.402 28.453,37.996 28.593 M70.240 36.692 C 73.025 37.758,74.344 40.908,73.072 43.460 C 71.169 47.280,64.863 47.073,63.169 43.136 C 61.437 39.110,65.909 35.034,70.240 36.692 M90.917 40.002 C 94.261 41.617,94.908 46.113,92.124 48.392 C 88.603 51.274,83.170 48.963,83.170 44.583 C 83.170 40.833,87.425 38.317,90.917 40.002 M52.038 41.474 C 57.527 44.614,53.795 52.721,47.694 50.909 C 43.310 49.607,42.697 43.469,46.743 41.377 C 48.227 40.610,50.603 40.653,52.038 41.474 M306.328 46.170 C 309.029 47.077,310.517 49.149,311.351 53.167 C 311.757 55.125,312.388 58.287,312.746 60.167 C 312.895 60.946,313.160 62.258,313.335 63.083 C 313.510 63.908,313.779 65.221,313.932 66.000 C 314.085 66.779,314.352 68.129,314.524 69.000 C 314.696 69.871,315.017 71.521,315.238 72.667 C 315.821 75.705,315.970 76.083,316.584 76.083 C 317.149 76.083,317.368 75.423,318.164 71.333 C 318.793 68.094,319.138 66.339,319.589 64.083 C 319.827 62.892,320.160 61.191,320.329 60.305 C 320.498 59.418,320.679 58.556,320.732 58.388 C 320.785 58.221,320.978 57.296,321.160 56.333 C 321.982 51.999,322.297 50.871,323.166 49.168 C 324.566 46.423,328.478 45.019,332.156 45.941 C 335.950 46.891,337.466 49.136,337.992 54.583 C 338.089 55.592,338.244 56.904,338.336 57.500 C 338.428 58.096,338.656 60.008,338.842 61.750 C 339.609 68.935,339.834 70.937,339.916 71.333 C 339.964 71.563,340.150 73.137,340.330 74.833 C 340.510 76.529,340.777 78.892,340.924 80.083 C 341.585 85.437,341.213 86.000,337.016 86.000 C 332.468 86.000,332.847 86.981,331.331 71.286 C 331.156 69.472,330.970 67.747,330.919 67.452 C 330.867 67.158,330.674 65.342,330.490 63.417 C 330.306 61.492,330.049 58.979,329.918 57.833 C 329.788 56.688,329.678 55.694,329.674 55.625 C 329.666 55.493,328.667 55.445,328.667 55.577 C 328.667 55.619,328.357 57.175,327.979 59.035 C 327.600 60.895,327.157 63.143,326.993 64.031 C 326.830 64.918,326.652 65.783,326.598 65.953 C 326.544 66.122,326.349 67.046,326.165 68.006 C 325.980 68.965,325.635 70.725,325.398 71.917 C 325.160 73.108,324.833 74.758,324.669 75.583 C 323.472 81.620,323.225 82.539,322.538 83.500 C 321.306 85.224,319.953 85.843,317.161 85.959 C 312.211 86.164,310.186 84.524,309.278 79.575 C 308.854 77.267,307.690 71.447,307.497 70.667 C 307.394 70.254,307.158 69.129,306.972 68.167 C 306.118 63.745,305.153 58.960,304.635 56.583 C 304.339 55.229,303.583 54.985,303.437 56.198 C 302.861 60.999,302.724 62.290,301.999 69.750 C 301.821 71.583,301.633 73.308,301.582 73.583 C 301.531 73.858,301.338 75.696,301.154 77.667 C 300.371 86.039,300.395 86.000,296.178 86.000 C 291.322 86.000,291.475 86.562,292.915 74.000 C 293.140 72.029,293.479 68.992,293.666 67.250 C 293.854 65.508,294.079 63.633,294.167 63.083 C 294.255 62.533,294.405 61.221,294.501 60.167 C 294.597 59.112,294.781 57.462,294.909 56.500 C 295.038 55.538,295.224 54.112,295.324 53.333 C 296.013 47.941,298.642 45.524,303.583 45.736 C 304.687 45.784,305.614 45.930,306.328 46.170 M162.828 46.581 C 163.092 46.717,163.482 47.073,163.695 47.372 L 164.083 47.917 164.128 65.900 C 164.183 88.050,164.638 85.880,159.917 85.964 C 156.902 86.017,156.403 85.885,155.712 84.850 L 155.333 84.284 155.333 66.217 C 155.333 46.737,155.290 47.713,156.192 46.896 C 156.769 46.374,156.855 46.361,159.717 46.346 C 161.740 46.336,162.461 46.391,162.828 46.581 M356.159 46.909 C 357.020 47.735,357.009 47.452,356.961 66.558 C 356.917 84.383,356.915 84.478,356.571 84.946 C 355.876 85.894,355.371 86.016,352.363 85.964 L 349.642 85.917 349.002 85.231 C 348.113 84.276,348.142 85.012,348.199 65.417 C 348.255 46.264,348.174 47.608,349.335 46.747 C 349.915 46.317,349.925 46.316,352.781 46.366 L 355.646 46.417 356.159 46.909 M216.070 49.310 C 217.215 49.982,217.490 50.844,217.496 53.782 L 217.500 55.814 222.042 55.865 C 228.204 55.935,228.417 56.056,228.417 59.479 C 228.417 62.904,228.243 63.000,222.007 63.000 L 217.500 63.000 217.500 69.731 L 217.500 76.462 217.961 77.343 C 218.334 78.058,218.594 78.317,219.336 78.710 L 220.250 79.195 223.527 79.089 C 228.118 78.941,228.505 79.158,228.496 81.870 C 228.486 84.826,227.903 85.471,224.665 86.107 C 216.022 87.806,210.423 85.051,209.014 78.406 C 208.679 76.823,208.667 76.309,208.667 63.876 C 208.667 49.312,208.600 50.062,209.960 49.344 C 210.829 48.885,215.303 48.860,216.070 49.310 M276.502 49.375 C 277.659 50.163,277.744 50.416,277.807 53.262 L 277.863 55.833 281.973 55.835 C 286.934 55.837,287.139 55.866,288.046 56.670 L 288.750 57.295 288.750 59.385 C 288.750 62.935,288.637 62.999,282.375 63.000 L 277.833 63.000 277.833 69.579 C 277.833 79.186,277.864 79.232,284.334 79.135 L 287.823 79.083 288.286 79.545 C 288.724 79.981,288.753 80.101,288.802 81.712 C 288.898 84.878,288.415 85.436,284.994 86.108 C 276.802 87.719,271.132 85.202,269.564 79.261 C 268.890 76.704,268.730 51.626,269.380 50.322 C 270.052 48.973,274.953 48.321,276.502 49.375 M131.843 52.215 C 133.734 52.859,135.061 53.814,136.355 55.463 C 138.490 58.184,138.014 62.964,135.336 65.685 C 130.207 70.897,121.293 67.646,120.889 60.417 C 120.573 54.743,126.419 50.366,131.843 52.215 M29.602 54.684 C 35.606 57.851,33.108 66.446,26.324 65.961 C 20.282 65.528,18.769 57.278,24.250 54.647 C 25.766 53.919,28.182 53.936,29.602 54.684 M114.357 54.728 C 117.787 56.139,119.140 60.209,117.229 63.365 C 114.849 67.295,108.748 67.111,106.638 63.045 C 104.051 58.058,109.135 52.580,114.357 54.728 M99.592 55.478 C 102.384 56.798,103.422 60.265,101.771 62.752 C 98.994 66.933,92.153 65.258,91.867 60.327 C 91.639 56.390,95.886 53.724,99.592 55.478 M44.750 55.671 C 49.852 58.147,48.005 65.333,42.266 65.333 C 37.889 65.333,35.492 60.655,38.061 57.127 C 39.356 55.348,42.620 54.637,44.750 55.671 M189.670 55.497 C 196.861 55.963,200.381 58.469,201.966 64.250 C 202.375 65.742,202.378 65.801,202.450 74.868 C 202.543 86.581,202.802 85.877,198.377 85.970 C 193.704 86.068,193.944 86.625,193.823 75.417 C 193.723 66.213,193.710 66.062,192.883 64.813 C 190.974 61.927,184.143 61.875,182.036 64.730 C 181.147 65.935,181.118 66.250,181.010 75.583 C 180.883 86.584,181.163 85.880,176.883 85.970 C 173.974 86.031,173.433 85.884,172.794 84.857 L 172.417 84.250 172.417 75.250 L 172.418 66.250 172.890 64.417 C 174.437 58.402,178.130 55.826,185.750 55.446 C 186.300 55.419,186.862 55.384,187.000 55.368 C 187.137 55.353,188.339 55.411,189.670 55.497 M239.237 55.993 C 241.406 56.496,241.401 56.473,241.500 66.833 C 241.594 76.707,241.570 76.526,242.969 77.882 C 244.945 79.797,251.018 79.751,252.770 77.808 C 254.166 76.259,254.207 75.942,254.320 65.939 L 254.417 57.295 255.132 56.660 C 256.341 55.588,260.572 55.463,261.813 56.463 C 262.889 57.330,262.845 56.849,262.785 67.083 L 262.731 76.417 262.267 78.000 C 261.306 81.277,259.498 83.650,257.081 84.807 C 256.441 85.114,255.794 85.428,255.643 85.506 C 253.080 86.827,244.736 86.923,240.528 85.680 C 238.291 85.019,235.394 82.748,234.558 81.000 C 232.811 77.348,232.762 76.954,232.756 66.500 L 232.750 57.750 233.160 57.144 C 233.558 56.557,234.232 56.097,234.917 55.946 C 235.542 55.808,238.582 55.841,239.237 55.993 M70.955 57.494 C 73.748 58.762,74.424 62.385,72.279 64.584 C 69.552 67.379,64.836 65.689,64.542 61.811 C 64.291 58.504,67.871 56.094,70.955 57.494 M90.249 72.077 C 94.672 73.742,94.882 79.327,90.597 81.353 C 87.755 82.698,84.084 81.277,83.015 78.418 C 81.468 74.283,85.867 70.427,90.249 72.077 M52.000 72.944 C 56.915 75.639,54.682 82.793,49.025 82.473 C 47.293 82.375,45.100 81.103,44.747 79.992 C 44.691 79.813,44.580 79.667,44.501 79.667 C 44.251 79.667,43.954 77.916,44.031 76.897 C 44.300 73.317,48.699 71.135,52.000 72.944 M70.426 78.335 C 74.852 79.833,75.287 85.499,71.135 87.576 C 67.130 89.580,62.448 86.341,63.331 82.177 C 63.994 79.054,67.284 77.272,70.426 78.335 M39.016 82.432 C 43.663 83.489,45.115 89.403,41.532 92.683 C 40.053 94.037,37.360 94.575,35.506 93.886 C 28.252 91.191,31.462 80.714,39.016 82.432 M102.431 83.124 C 104.659 84.266,105.763 86.393,105.504 89.043 C 104.771 96.532,93.500 95.880,93.500 88.348 C 93.500 83.925,98.401 81.059,102.431 83.124 M26.611 92.220 C 35.049 95.828,32.600 107.833,23.426 107.833 C 15.980 107.833,12.217 99.238,17.401 94.071 C 19.703 91.778,23.699 90.974,26.611 92.220 M114.932 93.083 C 124.092 96.158,122.006 108.726,112.333 108.744 C 102.171 108.763,100.808 95.024,110.750 92.781 C 111.801 92.544,113.743 92.684,114.932 93.083 M70.083 93.304 C 76.303 95.411,75.258 104.323,68.721 104.922 C 63.346 105.414,60.151 99.395,63.526 95.134 C 64.923 93.370,67.859 92.551,70.083 93.304 M70.257 109.420 C 79.516 111.778,78.411 124.857,68.915 125.296 C 64.570 125.497,61.424 123.405,60.224 119.516 C 58.406 113.625,64.134 107.860,70.257 109.420 " stroke="none" fill="#fbfbfb" fill-rule="evenodd"></path><path id="path3" d="M66.566 20.559 C 62.129 21.471,60.376 27.159,63.511 30.467 C 65.837 32.920,70.083 32.963,72.354 30.556 C 76.513 26.149,72.562 19.325,66.566 20.559 M70.424 21.255 C 74.072 23.000,74.859 27.490,72.014 30.335 C 68.401 33.948,62.283 31.497,62.283 26.434 C 62.283 22.206,66.629 19.441,70.424 21.255 M100.796 27.407 C 96.425 28.645,94.975 34.120,98.167 37.340 C 100.654 39.850,105.003 39.653,107.195 36.932 C 110.894 32.341,106.495 25.793,100.796 27.407 M104.900 27.992 C 110.463 30.685,108.663 38.762,102.504 38.746 C 95.783 38.729,94.584 29.355,101.083 27.644 C 101.975 27.410,104.096 27.603,104.900 27.992 M35.786 28.515 C 28.501 29.581,29.058 40.003,36.417 40.301 C 42.675 40.555,45.144 32.741,39.874 29.359 C 39.232 28.947,37.201 28.277,36.833 28.356 C 36.787 28.366,36.316 28.437,35.786 28.515 M39.120 29.355 C 43.567 31.476,43.497 37.447,39.000 39.561 C 36.683 40.650,33.627 39.926,32.102 37.926 C 28.460 33.152,33.691 26.765,39.120 29.355 M66.333 36.608 C 64.690 37.175,63.180 38.760,62.942 40.167 C 62.868 40.603,62.914 40.539,63.125 39.917 C 63.978 37.394,67.298 35.876,70.083 36.735 C 70.267 36.792,70.192 36.728,69.917 36.593 C 69.256 36.270,67.291 36.278,66.333 36.608 M71.347 37.464 C 71.922 37.865,72.447 38.422,72.792 38.998 C 73.090 39.495,73.333 39.820,73.333 39.720 C 73.333 39.097,71.210 36.833,70.625 36.833 C 70.525 36.833,70.850 37.117,71.347 37.464 M86.833 39.750 C 86.064 40.046,86.372 40.052,87.417 39.762 C 87.916 39.623,88.083 39.529,87.833 39.528 C 87.604 39.526,87.154 39.626,86.833 39.750 M89.333 39.654 C 89.563 39.723,89.975 39.826,90.250 39.883 L 90.750 39.986 90.250 39.751 C 89.975 39.621,89.563 39.518,89.333 39.522 L 88.917 39.529 89.333 39.654 M91.518 40.525 C 91.934 40.814,92.549 41.424,92.887 41.880 C 93.224 42.336,93.500 42.639,93.500 42.554 C 93.500 42.033,91.425 40.000,90.893 40.000 C 90.822 40.000,91.103 40.236,91.518 40.525 M85.248 40.528 C 84.727 40.906,83.744 41.982,83.853 42.054 C 83.888 42.077,84.342 41.662,84.863 41.131 C 85.383 40.601,85.795 40.167,85.777 40.167 C 85.760 40.167,85.521 40.329,85.248 40.528 M46.802 41.339 C 46.465 41.518,46.132 41.758,46.062 41.873 C 45.963 42.039,45.988 42.041,46.185 41.882 C 46.321 41.772,46.767 41.533,47.175 41.352 C 47.583 41.172,47.804 41.022,47.667 41.019 C 47.529 41.017,47.140 41.161,46.802 41.339 M51.092 41.135 C 51.307 41.319,52.167 41.678,52.167 41.584 C 52.167 41.492,51.233 41.000,51.058 41.000 C 50.990 41.000,51.005 41.061,51.092 41.135 M52.417 41.773 C 52.508 41.853,52.846 42.144,53.166 42.418 L 53.749 42.917 53.333 42.443 C 53.104 42.183,52.767 41.892,52.583 41.798 C 52.400 41.703,52.325 41.692,52.417 41.773 M62.848 42.083 C 62.812 43.138,64.470 45.226,65.778 45.772 C 66.701 46.158,66.598 45.936,65.648 45.491 C 64.561 44.982,63.610 43.901,63.190 42.696 C 63.008 42.176,62.854 41.900,62.848 42.083 M45.034 42.792 C 44.568 43.454,44.129 44.351,44.224 44.446 C 44.269 44.491,44.459 44.203,44.647 43.806 C 44.835 43.408,45.113 42.915,45.265 42.708 C 45.417 42.502,45.499 42.333,45.448 42.333 C 45.398 42.333,45.211 42.540,45.034 42.792 M83.408 42.911 C 83.275 43.229,83.173 43.660,83.182 43.870 C 83.190 44.094,83.284 43.933,83.409 43.479 C 83.526 43.055,83.674 42.623,83.737 42.520 C 83.801 42.418,83.807 42.333,83.751 42.333 C 83.695 42.333,83.541 42.593,83.408 42.911 M72.931 43.349 C 72.616 44.094,71.416 45.249,70.607 45.585 C 70.253 45.732,70.002 45.891,70.049 45.938 C 70.172 46.061,71.367 45.424,71.981 44.907 C 72.555 44.424,73.435 43.046,73.272 42.884 C 73.217 42.828,73.063 43.037,72.931 43.349 M54.011 43.583 C 54.012 43.675,54.119 43.938,54.250 44.167 C 54.381 44.396,54.491 44.765,54.494 44.986 C 54.497 45.208,54.547 45.342,54.603 45.286 C 54.760 45.129,54.528 44.100,54.253 43.737 C 54.120 43.561,54.011 43.492,54.011 43.583 M44.039 45.167 C 44.039 45.487,44.073 45.619,44.115 45.458 C 44.157 45.298,44.157 45.035,44.115 44.875 C 44.073 44.715,44.039 44.846,44.039 45.167 M83.167 45.394 C 83.167 45.714,83.606 46.833,83.731 46.833 C 83.810 46.833,83.348 45.324,83.226 45.181 C 83.193 45.142,83.167 45.239,83.167 45.394 M93.284 46.635 C 93.014 47.246,91.831 48.486,91.074 48.949 C 90.896 49.058,90.837 49.151,90.943 49.157 C 91.592 49.190,93.819 46.707,93.635 46.156 C 93.602 46.057,93.444 46.272,93.284 46.635 M83.833 47.090 C 83.833 47.309,85.133 48.638,85.570 48.866 C 85.761 48.965,85.560 48.729,85.124 48.341 C 84.688 47.953,84.219 47.476,84.082 47.281 C 83.945 47.086,83.833 47.000,83.833 47.090 M44.173 47.510 C 44.169 47.653,44.277 47.915,44.411 48.093 C 44.725 48.507,44.728 48.212,44.417 47.667 C 44.264 47.400,44.176 47.343,44.173 47.510 M54.116 48.085 C 53.963 48.405,53.873 48.667,53.915 48.667 C 54.029 48.667,54.535 47.646,54.459 47.570 C 54.423 47.534,54.268 47.766,54.116 48.085 M44.813 48.792 C 44.900 48.952,45.216 49.308,45.514 49.583 C 46.014 50.043,46.005 50.019,45.410 49.292 C 44.727 48.457,44.552 48.310,44.813 48.792 M53.164 49.419 C 52.852 49.742,52.222 50.192,51.765 50.419 C 51.308 50.647,51.045 50.833,51.181 50.833 C 51.571 50.833,53.269 49.706,53.569 49.249 C 53.940 48.683,53.835 48.727,53.164 49.419 M87.058 49.539 C 87.163 49.606,87.813 49.662,88.500 49.662 C 89.188 49.662,89.836 49.606,89.942 49.539 C 90.048 49.472,89.398 49.417,88.500 49.417 C 87.601 49.417,86.952 49.472,87.058 49.539 M46.475 50.336 C 47.250 50.985,49.625 51.391,50.535 51.030 C 50.692 50.968,50.167 50.917,49.369 50.917 C 48.123 50.917,47.787 50.852,47.000 50.462 C 46.319 50.124,46.184 50.092,46.475 50.336 M24.250 54.647 C 21.990 55.732,20.712 57.914,20.872 60.417 C 21.297 67.085,31.045 68.081,32.762 61.631 C 34.082 56.671,28.897 52.416,24.250 54.647 M29.254 54.897 C 31.163 55.771,32.464 57.569,32.623 59.552 C 33.048 64.854,26.525 67.790,22.806 63.972 C 18.471 59.521,23.597 52.307,29.254 54.897 M110.083 54.566 C 106.541 55.687,104.907 59.708,106.638 63.045 C 108.748 67.111,114.849 67.295,117.229 63.365 C 120.103 58.619,115.437 52.873,110.083 54.566 M114.315 55.039 C 118.980 57.298,118.885 63.654,114.158 65.497 C 108.424 67.734,103.657 60.784,107.892 56.361 C 109.469 54.715,112.400 54.111,114.315 55.039 M95.499 55.156 C 93.726 55.695,91.804 57.895,91.850 59.333 C 91.859 59.614,91.933 59.496,92.078 58.968 C 92.545 57.273,93.893 55.872,95.567 55.341 C 96.126 55.164,96.433 55.021,96.250 55.024 C 96.067 55.026,95.729 55.086,95.499 55.156 M98.333 55.231 C 98.746 55.345,99.271 55.490,99.500 55.551 C 99.729 55.613,99.617 55.516,99.250 55.336 C 98.883 55.156,98.358 55.012,98.083 55.016 C 97.653 55.022,97.688 55.052,98.333 55.231 M40.667 55.428 L 40.083 55.664 40.667 55.560 C 40.987 55.503,41.400 55.396,41.583 55.322 L 41.917 55.188 41.583 55.190 C 41.400 55.191,40.987 55.298,40.667 55.428 M43.250 55.319 C 43.433 55.391,43.808 55.496,44.083 55.552 L 44.583 55.653 44.083 55.417 C 43.808 55.288,43.433 55.183,43.250 55.185 L 42.917 55.188 43.250 55.319 M39.232 56.096 C 38.599 56.515,37.680 57.462,37.671 57.705 C 37.669 57.772,38.060 57.434,38.542 56.955 C 39.023 56.475,39.567 55.994,39.750 55.885 C 39.933 55.776,40.038 55.682,39.982 55.676 C 39.926 55.671,39.588 55.860,39.232 56.096 M45.350 56.193 C 45.753 56.482,46.143 56.820,46.217 56.943 C 46.290 57.066,46.430 57.167,46.529 57.167 C 46.804 57.167,46.360 56.701,45.563 56.153 C 44.610 55.497,44.428 55.531,45.350 56.193 M100.000 55.718 C 100.000 55.753,100.394 56.106,100.875 56.503 C 101.744 57.220,101.746 57.220,101.167 56.598 C 100.644 56.038,100.000 55.552,100.000 55.718 M67.211 57.430 C 61.804 59.795,65.022 67.275,70.750 65.656 C 74.844 64.500,73.975 57.134,69.750 57.179 C 69.350 57.184,69.437 57.244,70.187 57.484 C 73.257 58.466,74.325 61.859,72.308 64.219 C 69.733 67.232,64.741 65.420,64.775 61.484 C 64.795 59.198,66.113 57.859,68.917 57.275 C 69.100 57.237,68.912 57.203,68.500 57.200 C 68.087 57.196,67.507 57.300,67.211 57.430 M47.017 57.995 C 47.214 58.372,47.408 58.647,47.450 58.606 C 47.548 58.507,47.051 57.551,46.831 57.415 C 46.737 57.357,46.820 57.618,47.017 57.995 M101.920 57.833 C 102.288 58.577,102.408 58.696,102.253 58.167 C 102.186 57.938,102.018 57.637,101.881 57.500 C 101.688 57.307,101.697 57.383,101.920 57.833 M37.233 58.599 C 37.095 58.928,37.011 59.283,37.046 59.387 C 37.081 59.492,37.230 59.222,37.378 58.789 C 37.693 57.863,37.594 57.733,37.233 58.599 M91.847 60.667 C 91.829 61.046,92.160 62.143,92.323 62.244 C 92.402 62.293,92.361 61.977,92.231 61.541 C 91.922 60.503,91.862 60.367,91.847 60.667 M37.066 61.264 C 37.121 61.409,37.167 61.619,37.167 61.732 C 37.167 61.844,37.278 62.082,37.413 62.260 C 37.622 62.534,37.620 62.462,37.398 61.792 C 37.253 61.356,37.097 61.000,37.050 61.000 C 37.003 61.000,37.010 61.119,37.066 61.264 M101.996 62.013 C 101.641 62.874,100.518 64.003,99.583 64.440 C 99.125 64.655,98.866 64.831,99.007 64.832 C 99.939 64.838,102.530 62.339,102.302 61.655 C 102.263 61.538,102.125 61.699,101.996 62.013 M47.219 62.088 C 47.123 62.360,46.772 62.909,46.439 63.307 C 45.731 64.153,45.649 64.397,46.266 63.821 C 46.819 63.304,47.550 62.066,47.461 61.798 C 47.423 61.685,47.314 61.815,47.219 62.088 M37.672 62.726 C 37.662 63.009,38.646 64.090,39.192 64.395 C 39.639 64.645,39.576 64.552,38.877 63.926 C 38.397 63.496,37.930 63.018,37.840 62.864 C 37.750 62.710,37.675 62.648,37.672 62.726 M93.167 63.417 C 93.478 63.737,93.770 64.000,93.815 64.000 C 93.861 64.000,93.644 63.737,93.333 63.417 C 93.022 63.096,92.730 62.833,92.685 62.833 C 92.639 62.833,92.856 63.096,93.167 63.417 M94.089 64.175 C 94.227 64.400,95.157 64.864,95.343 64.802 C 95.427 64.773,95.157 64.585,94.743 64.382 C 94.328 64.180,94.034 64.087,94.089 64.175 M45.125 64.429 C 44.873 64.565,44.667 64.712,44.667 64.755 C 44.667 64.930,44.986 64.814,45.357 64.506 C 45.826 64.115,45.750 64.090,45.125 64.429 M40.583 65.087 C 40.869 65.219,41.620 65.318,42.333 65.318 C 43.047 65.318,43.798 65.219,44.083 65.087 L 44.583 64.857 44.000 64.970 C 43.679 65.032,42.929 65.083,42.333 65.083 C 41.737 65.083,40.987 65.032,40.667 64.970 L 40.083 64.857 40.583 65.087 M97.333 65.000 L 96.417 65.112 97.250 65.128 C 97.708 65.136,98.233 65.079,98.417 65.000 C 98.792 64.839,98.651 64.839,97.333 65.000 M86.096 72.080 C 85.553 72.304,84.991 72.605,84.846 72.751 C 84.702 72.897,85.064 72.769,85.652 72.466 C 86.636 71.961,86.845 71.917,88.271 71.917 C 89.124 71.917,89.693 71.866,89.536 71.803 C 88.853 71.533,87.081 71.675,86.096 72.080 M47.583 72.579 L 47.083 72.829 47.667 72.706 C 48.447 72.542,50.461 72.550,51.083 72.720 C 51.488 72.831,51.543 72.816,51.374 72.644 C 51.050 72.315,48.209 72.266,47.583 72.579 M91.071 72.587 C 91.248 72.721,91.433 72.789,91.483 72.739 C 91.588 72.635,91.164 72.337,90.917 72.341 C 90.825 72.343,90.895 72.453,91.071 72.587 M52.176 73.238 C 52.492 73.460,52.975 73.815,53.250 74.026 C 53.632 74.319,53.691 74.335,53.500 74.094 C 53.184 73.694,52.007 72.833,51.776 72.833 C 51.680 72.833,51.860 73.015,52.176 73.238 M92.167 73.417 C 92.478 73.737,92.770 74.000,92.815 74.000 C 92.861 74.000,92.644 73.737,92.333 73.417 C 92.022 73.096,91.730 72.833,91.685 72.833 C 91.639 72.833,91.856 73.096,92.167 73.417 M45.891 73.496 C 44.909 74.218,43.975 75.785,44.011 76.650 C 44.017 76.797,44.120 76.603,44.240 76.221 C 44.552 75.223,45.077 74.441,45.951 73.671 C 46.853 72.877,46.829 72.806,45.891 73.496 M83.332 74.375 C 83.063 74.815,82.850 75.414,83.054 75.153 C 83.303 74.836,83.840 73.833,83.761 73.833 C 83.706 73.833,83.513 74.077,83.332 74.375 M92.995 74.491 C 93.091 74.670,93.276 75.213,93.407 75.700 C 93.591 76.385,93.646 76.471,93.652 76.083 C 93.659 75.595,93.113 74.167,92.919 74.167 C 92.865 74.167,92.900 74.313,92.995 74.491 M53.999 75.165 C 54.196 75.551,54.394 75.828,54.441 75.782 C 54.548 75.674,54.060 74.724,53.822 74.576 C 53.723 74.515,53.803 74.780,53.999 75.165 M82.772 75.708 C 82.640 76.199,82.659 77.506,82.803 77.869 C 82.866 78.026,82.917 77.520,82.917 76.744 C 82.917 75.186,82.915 75.174,82.772 75.708 M93.427 77.833 C 92.714 80.923,88.664 82.641,85.685 81.117 C 85.191 80.864,84.755 80.689,84.716 80.728 C 84.434 81.010,86.704 81.744,88.040 81.803 C 90.742 81.921,94.040 79.406,93.626 77.542 C 93.586 77.360,93.511 77.469,93.427 77.833 M44.000 78.065 C 44.000 78.430,44.393 79.667,44.510 79.667 C 44.585 79.667,44.528 79.310,44.382 78.875 C 44.120 78.088,44.000 77.834,44.000 78.065 M67.000 78.261 L 66.417 78.497 67.000 78.374 C 67.321 78.306,68.179 78.256,68.907 78.264 C 69.671 78.271,70.094 78.223,69.907 78.150 C 69.374 77.942,67.625 78.008,67.000 78.261 M54.519 78.381 C 54.454 79.378,53.047 81.127,51.750 81.821 C 51.335 82.043,51.240 82.138,51.500 82.072 C 52.861 81.728,54.870 79.331,54.612 78.359 C 54.549 78.121,54.536 78.124,54.519 78.381 M70.347 78.396 C 70.592 78.618,71.845 79.154,71.747 78.995 C 71.680 78.887,71.375 78.694,71.068 78.566 C 70.532 78.342,70.202 78.264,70.347 78.396 M65.911 78.659 C 65.724 78.734,65.462 78.929,65.328 79.092 C 65.046 79.433,65.439 79.264,66.083 78.768 C 66.455 78.481,66.413 78.455,65.911 78.659 M83.318 79.137 C 83.419 79.327,83.584 79.532,83.684 79.594 C 83.815 79.675,83.814 79.609,83.682 79.363 C 83.581 79.173,83.416 78.968,83.316 78.906 C 83.185 78.825,83.186 78.891,83.318 79.137 M72.500 79.750 C 72.820 80.117,73.148 80.492,73.228 80.583 C 73.308 80.675,73.296 80.600,73.201 80.417 C 73.106 80.233,72.778 79.858,72.473 79.584 L 71.917 79.084 72.500 79.750 M64.371 79.958 C 63.789 80.701,63.442 81.331,63.553 81.442 C 63.597 81.486,63.840 81.142,64.093 80.678 C 64.346 80.213,64.608 79.833,64.675 79.833 C 64.743 79.833,64.841 79.721,64.894 79.583 C 65.048 79.181,64.895 79.291,64.371 79.958 M45.001 80.417 C 45.374 80.917,45.940 81.396,46.543 81.722 C 47.067 82.005,47.070 82.005,46.667 81.716 C 46.438 81.551,45.913 81.117,45.501 80.750 C 45.089 80.383,44.864 80.233,45.001 80.417 M73.596 81.583 C 73.811 82.480,74.015 82.807,73.907 82.083 C 73.852 81.717,73.733 81.342,73.642 81.250 C 73.532 81.140,73.517 81.252,73.596 81.583 M47.667 82.239 C 48.271 82.483,50.201 82.562,50.702 82.363 C 50.859 82.301,50.372 82.250,49.619 82.250 C 48.866 82.250,47.987 82.194,47.667 82.126 L 47.083 82.003 47.667 82.239 M35.996 82.393 C 32.396 83.169,30.330 87.561,32.014 90.861 C 33.798 94.357,38.683 95.292,41.532 92.683 C 46.202 88.407,42.243 81.047,35.996 82.393 M39.949 83.085 C 44.538 85.144,44.213 91.954,39.454 93.474 C 36.344 94.466,33.515 93.282,32.242 90.456 C 30.119 85.739,35.147 80.929,39.949 83.085 M63.212 83.167 C 63.212 83.579,63.245 83.748,63.284 83.542 C 63.324 83.335,63.324 82.998,63.284 82.792 C 63.245 82.585,63.212 82.754,63.212 83.167 M97.833 82.647 C 91.115 84.851,92.465 94.250,99.500 94.250 C 107.434 94.250,107.761 82.792,99.833 82.557 C 98.962 82.531,98.063 82.572,97.833 82.647 M100.721 82.856 C 103.528 83.420,105.619 86.263,105.265 89.038 C 104.673 93.690,98.770 95.732,95.476 92.424 C 91.485 88.415,95.146 81.736,100.721 82.856 M73.606 84.582 C 73.363 85.351,73.086 85.774,72.324 86.536 C 71.626 87.234,71.495 87.424,71.860 87.212 C 72.815 86.656,74.110 84.612,73.970 83.883 C 73.940 83.727,73.776 84.042,73.606 84.582 M64.750 86.640 C 65.025 86.946,65.453 87.302,65.700 87.432 C 66.392 87.793,66.489 87.709,65.833 87.316 C 65.512 87.123,65.025 86.767,64.750 86.525 L 64.250 86.083 64.750 86.640 M70.624 87.681 C 70.463 87.774,70.013 87.914,69.624 87.991 C 69.037 88.106,69.002 88.133,69.417 88.144 C 69.859 88.156,71.502 87.540,71.083 87.519 C 70.992 87.514,70.785 87.587,70.624 87.681 M66.625 87.858 C 66.723 87.957,67.167 88.062,67.611 88.093 C 68.054 88.123,68.229 88.109,68.000 88.063 C 67.771 88.017,67.327 87.911,67.014 87.829 C 66.607 87.721,66.496 87.730,66.625 87.858 M66.238 93.332 C 59.519 95.657,61.643 105.570,68.721 104.922 C 75.258 104.323,76.303 95.411,70.083 93.304 C 69.020 92.944,67.325 92.956,66.238 93.332 M70.140 93.684 C 72.766 94.571,74.456 97.551,73.830 100.190 C 72.736 104.796,66.644 106.180,63.684 102.496 C 60.127 98.070,64.689 91.843,70.140 93.684 " stroke="none" fill="#f4d39d" fill-rule="evenodd"></path><path id="path4" d="M1.278 1.278 C 1.131 1.424,1.157 57.666,1.303 58.036 C 1.366 58.193,1.397 45.499,1.372 29.827 L 1.328 1.333 33.706 1.336 C 56.915 1.338,66.013 1.389,65.833 1.518 C 65.625 1.668,65.635 1.681,65.889 1.599 C 66.057 1.545,66.394 1.495,66.639 1.488 C 67.037 1.478,67.049 1.462,66.750 1.333 C 66.363 1.167,1.444 1.112,1.278 1.278 M69.417 1.333 C 69.118 1.462,69.130 1.478,69.528 1.488 C 69.773 1.495,70.110 1.545,70.278 1.599 C 70.532 1.681,70.541 1.668,70.333 1.518 C 70.154 1.390,116.782 1.338,234.375 1.336 L 398.667 1.333 398.667 68.917 L 398.667 136.500 199.998 136.500 L 1.329 136.500 1.373 98.428 C 1.397 77.489,1.360 60.458,1.291 60.581 C 1.222 60.704,1.185 77.855,1.208 98.694 L 1.250 136.583 200.000 136.583 L 398.750 136.583 398.750 68.917 L 398.750 1.250 234.250 1.220 C 142.773 1.203,69.602 1.254,69.417 1.333 M64.667 1.930 L 64.250 2.181 64.667 2.070 C 65.271 1.910,65.668 1.677,65.333 1.678 C 65.196 1.678,64.896 1.791,64.667 1.930 M71.805 2.233 C 73.183 2.910,74.746 4.349,75.316 5.466 C 75.513 5.851,75.711 6.167,75.758 6.167 C 76.056 6.167,74.516 3.959,73.751 3.291 C 73.143 2.760,71.592 1.862,71.083 1.747 C 70.808 1.685,71.133 1.904,71.805 2.233 M63.398 2.600 C 62.138 3.442,60.328 5.590,60.335 6.234 C 60.336 6.335,60.525 6.089,60.753 5.689 C 61.414 4.533,62.114 3.733,63.048 3.064 C 64.423 2.080,64.674 1.748,63.398 2.600 M75.849 6.333 C 75.843 6.379,75.948 6.829,76.083 7.333 C 76.396 8.497,76.402 10.331,76.097 11.505 C 75.819 12.578,75.872 12.792,76.192 11.886 C 76.523 10.949,76.483 7.589,76.132 6.833 C 75.983 6.513,75.855 6.287,75.849 6.333 M59.883 7.272 C 59.660 8.072,59.726 11.373,59.972 11.750 C 60.177 12.064,60.184 12.060,60.087 11.667 C 59.857 10.726,59.801 8.690,59.982 7.844 C 60.185 6.899,60.109 6.461,59.883 7.272 M60.450 12.995 C 60.497 13.175,60.652 13.419,60.794 13.536 C 61.012 13.717,61.008 13.666,60.771 13.208 C 60.455 12.596,60.323 12.508,60.450 12.995 M75.322 13.356 C 74.769 14.439,73.086 16.024,71.833 16.640 C 71.237 16.934,70.938 17.126,71.167 17.068 C 72.707 16.678,76.332 13.276,75.787 12.731 C 75.734 12.678,75.524 12.959,75.322 13.356 M61.111 14.059 C 61.408 14.594,62.895 16.023,63.417 16.275 L 63.917 16.516 63.417 16.147 C 63.142 15.944,62.472 15.322,61.928 14.764 C 61.384 14.206,61.017 13.889,61.111 14.059 M112.984 14.411 C 110.987 15.146,108.157 17.781,108.169 18.894 C 108.170 18.998,108.364 18.746,108.599 18.334 C 109.625 16.539,111.105 15.292,113.082 14.557 C 113.633 14.352,113.971 14.185,113.833 14.187 C 113.696 14.189,113.314 14.289,112.984 14.411 M118.653 14.500 C 119.150 14.683,119.592 14.797,119.635 14.754 C 119.738 14.651,119.065 14.402,118.333 14.272 C 117.911 14.197,117.999 14.260,118.653 14.500 M120.083 15.087 C 120.590 15.498,121.064 15.739,120.926 15.515 C 120.864 15.414,120.573 15.215,120.281 15.074 C 119.788 14.836,119.774 14.837,120.083 15.087 M21.333 15.199 C 20.921 15.289,20.520 15.423,20.443 15.496 C 20.366 15.570,20.741 15.527,21.277 15.401 C 22.520 15.108,24.313 15.108,25.557 15.401 C 26.092 15.527,26.467 15.571,26.390 15.499 C 25.913 15.055,22.833 14.872,21.333 15.199 M19.216 16.071 C 18.371 16.554,17.138 17.527,17.240 17.629 C 17.281 17.670,17.675 17.403,18.115 17.037 C 18.556 16.670,19.217 16.215,19.583 16.026 C 19.950 15.836,20.175 15.679,20.083 15.676 C 19.992 15.673,19.601 15.851,19.216 16.071 M26.681 15.730 C 26.851 15.884,28.167 16.498,28.167 16.423 C 28.167 16.329,26.909 15.667,26.729 15.667 C 26.664 15.667,26.642 15.695,26.681 15.730 M121.859 16.417 C 122.286 16.875,122.867 17.621,123.151 18.074 C 123.435 18.528,123.667 18.834,123.667 18.756 C 123.667 18.439,122.636 17.039,121.883 16.333 L 121.083 15.584 121.859 16.417 M29.269 17.513 C 29.829 18.106,30.453 18.915,30.655 19.311 C 30.858 19.708,31.068 19.987,31.124 19.932 C 31.297 19.759,29.707 17.611,28.961 17.010 C 28.366 16.530,28.416 16.612,29.269 17.513 M64.000 16.590 C 64.000 16.735,65.191 17.198,65.296 17.093 C 65.347 17.042,65.348 17.000,65.298 17.000 C 65.248 17.000,64.936 16.886,64.604 16.748 C 64.272 16.609,64.000 16.538,64.000 16.590 M66.365 17.525 C 66.577 17.585,67.350 17.633,68.083 17.633 C 68.817 17.633,69.590 17.585,69.802 17.525 C 70.013 17.465,69.240 17.417,68.083 17.417 C 66.927 17.417,66.154 17.465,66.365 17.525 M15.998 19.208 C 15.663 19.758,15.530 20.292,15.842 19.833 C 16.168 19.354,16.508 18.667,16.418 18.667 C 16.369 18.667,16.180 18.910,15.998 19.208 M123.763 19.250 C 123.818 19.433,123.970 20.033,124.099 20.583 C 124.320 21.519,124.330 21.533,124.256 20.802 C 124.212 20.372,124.060 19.772,123.919 19.468 C 123.777 19.165,123.707 19.067,123.763 19.250 M107.658 20.358 C 107.423 21.225,107.532 23.808,107.824 24.267 C 108.018 24.571,108.021 24.571,107.918 24.250 C 107.707 23.592,107.638 21.235,107.808 20.505 C 108.034 19.534,107.914 19.417,107.658 20.358 M15.308 20.780 C 15.003 21.643,15.007 24.902,15.314 25.630 C 15.643 26.409,15.677 26.230,15.403 25.172 C 15.101 24.008,15.101 22.326,15.403 21.162 C 15.681 20.088,15.628 19.875,15.308 20.780 M31.466 21.250 C 31.617 22.104,31.617 24.387,31.467 25.250 L 31.351 25.917 31.602 25.167 C 31.895 24.291,31.855 21.453,31.542 20.917 C 31.381 20.640,31.368 20.697,31.466 21.250 M124.035 23.595 C 123.808 24.793,123.263 25.996,122.578 26.810 C 122.335 27.098,122.211 27.333,122.301 27.333 C 122.769 27.333,124.090 24.666,124.260 23.375 C 124.423 22.148,124.284 22.284,124.035 23.595 M108.283 25.458 C 108.803 26.887,111.367 29.203,112.833 29.569 C 113.063 29.627,112.763 29.434,112.167 29.140 C 110.922 28.528,109.232 26.941,108.686 25.872 C 108.324 25.161,108.087 24.918,108.283 25.458 M15.669 26.432 C 15.661 27.135,17.578 29.316,18.989 30.209 C 19.888 30.779,19.535 30.374,18.579 29.740 C 17.585 29.080,16.779 28.190,16.099 27.000 C 15.864 26.587,15.670 26.332,15.669 26.432 M30.679 27.094 C 30.194 28.009,28.878 29.366,27.852 30.011 C 27.429 30.276,27.169 30.495,27.273 30.497 C 27.560 30.502,29.358 29.134,29.879 28.515 C 30.418 27.874,31.236 26.514,31.140 26.418 C 31.103 26.381,30.896 26.685,30.679 27.094 M121.167 28.189 C 120.754 28.561,120.567 28.788,120.750 28.694 C 121.223 28.452,122.283 27.513,122.083 27.514 C 121.992 27.514,121.579 27.818,121.167 28.189 M119.417 29.266 C 118.958 29.488,118.771 29.623,119.000 29.564 C 119.488 29.439,120.333 29.026,120.333 28.912 C 120.333 28.814,120.402 28.787,119.417 29.266 M113.667 29.854 C 114.388 30.170,116.989 30.221,117.833 29.937 L 118.583 29.684 117.917 29.801 C 117.043 29.953,114.761 29.949,113.917 29.794 C 113.353 29.691,113.315 29.700,113.667 29.854 M20.250 30.830 C 20.617 31.011,21.067 31.155,21.250 31.151 C 21.464 31.146,21.374 31.066,21.000 30.929 C 19.960 30.546,19.567 30.495,20.250 30.830 M26.083 30.833 C 25.165 31.172,25.232 31.262,26.202 30.993 C 26.543 30.898,26.866 30.749,26.920 30.660 C 26.975 30.572,26.996 30.506,26.968 30.513 C 26.940 30.520,26.542 30.664,26.083 30.833 M62.875 41.250 C 62.877 41.617,62.911 41.747,62.951 41.540 C 62.991 41.332,62.990 41.032,62.948 40.873 C 62.906 40.714,62.874 40.883,62.875 41.250 M83.205 44.667 C 83.205 44.987,83.240 45.119,83.282 44.958 C 83.323 44.798,83.323 44.535,83.282 44.375 C 83.240 44.215,83.205 44.346,83.205 44.667 M301.417 45.814 C 301.099 45.897,301.615 45.941,302.833 45.936 C 303.887 45.931,305.050 45.980,305.417 46.044 C 305.979 46.143,306.018 46.133,305.667 45.982 C 305.148 45.759,302.093 45.638,301.417 45.814 M328.083 45.815 C 327.768 45.896,328.291 45.941,329.500 45.936 C 330.554 45.931,331.717 45.980,332.083 46.044 C 332.655 46.145,332.691 46.135,332.333 45.977 C 331.826 45.753,328.776 45.636,328.083 45.815 M299.250 46.481 C 297.955 47.078,295.621 49.843,296.050 50.272 C 296.095 50.318,296.322 49.941,296.553 49.436 C 297.083 48.277,298.240 47.112,299.373 46.595 C 299.855 46.374,300.175 46.189,300.083 46.184 C 299.992 46.178,299.617 46.312,299.250 46.481 M307.083 46.609 C 307.542 46.844,308.122 47.229,308.373 47.464 C 308.624 47.700,308.872 47.851,308.923 47.799 C 309.035 47.687,307.601 46.645,306.950 46.366 C 306.137 46.018,306.218 46.166,307.083 46.609 M156.833 46.451 C 156.445 46.593,155.826 47.204,155.567 47.700 C 155.140 48.522,155.228 84.075,155.659 84.783 C 156.078 85.469,156.638 85.829,157.441 85.927 C 158.051 86.002,158.044 85.995,157.301 85.781 C 155.356 85.222,155.500 86.793,155.500 66.167 C 155.500 45.714,155.377 47.195,157.123 46.572 C 157.468 46.449,157.600 46.351,157.417 46.354 C 157.233 46.357,156.971 46.401,156.833 46.451 M162.175 46.554 C 164.115 47.196,163.984 45.788,163.992 66.083 C 163.999 86.333,164.114 85.111,162.143 85.766 L 161.417 86.007 162.037 85.931 C 162.855 85.832,163.419 85.403,163.834 84.566 C 164.169 83.890,164.172 83.688,164.128 65.900 L 164.083 47.917 163.695 47.372 C 163.255 46.756,162.533 46.327,161.967 46.346 C 161.671 46.356,161.718 46.403,162.175 46.554 M325.294 46.839 C 324.117 47.619,322.941 49.215,322.598 50.500 C 322.537 50.729,322.740 50.392,323.049 49.750 C 323.661 48.479,324.910 47.102,325.792 46.726 C 326.090 46.599,326.333 46.459,326.333 46.414 C 326.333 46.231,326.016 46.361,325.294 46.839 M333.740 46.586 C 333.918 46.722,334.143 46.834,334.240 46.835 C 334.464 46.838,335.634 47.926,336.120 48.583 C 336.323 48.858,336.492 48.996,336.495 48.890 C 336.504 48.544,334.569 46.723,333.984 46.528 C 333.468 46.355,333.446 46.360,333.740 46.586 M349.552 46.625 C 349.377 46.785,349.332 46.851,349.452 46.770 C 349.571 46.690,349.912 46.566,350.209 46.496 C 350.705 46.378,350.713 46.366,350.310 46.350 C 350.068 46.341,349.727 46.465,349.552 46.625 M355.010 46.477 C 355.799 46.743,356.183 47.019,356.508 47.552 C 356.686 47.844,356.832 47.988,356.833 47.873 C 356.834 47.440,355.760 46.500,355.167 46.416 C 354.680 46.347,354.654 46.357,355.010 46.477 M348.596 47.476 C 348.219 48.205,348.273 48.350,348.676 47.690 C 348.864 47.381,348.982 47.093,348.938 47.049 C 348.894 47.005,348.740 47.197,348.596 47.476 M309.326 48.468 C 309.534 48.771,309.747 48.975,309.801 48.921 C 309.855 48.867,309.685 48.619,309.424 48.370 L 308.950 47.917 309.326 48.468 M356.914 66.167 C 356.914 76.021,356.934 80.052,356.958 75.125 C 356.983 70.198,356.983 62.135,356.958 57.208 C 356.934 52.281,356.914 56.313,356.914 66.167 M348.247 66.167 C 348.247 75.837,348.267 79.794,348.292 74.958 C 348.316 70.123,348.316 62.210,348.292 57.375 C 348.267 52.540,348.247 56.496,348.247 66.167 M210.391 49.128 C 210.285 49.195,211.459 49.250,212.999 49.250 C 214.540 49.250,215.766 49.194,215.724 49.125 C 215.625 48.964,210.645 48.966,210.391 49.128 M270.724 49.128 C 270.618 49.195,271.830 49.250,273.417 49.250 C 275.003 49.250,276.215 49.195,276.109 49.128 C 276.003 49.060,274.792 49.005,273.417 49.005 C 272.042 49.005,270.830 49.060,270.724 49.128 M310.200 50.004 C 310.391 50.464,310.581 50.808,310.621 50.768 C 310.707 50.682,310.058 49.167,309.935 49.167 C 309.889 49.167,310.008 49.543,310.200 50.004 M336.789 49.835 C 336.934 50.203,337.082 50.473,337.119 50.436 C 337.199 50.356,336.718 49.167,336.605 49.167 C 336.562 49.167,336.645 49.467,336.789 49.835 M209.627 49.512 C 209.381 49.656,208.893 50.333,209.036 50.333 C 209.063 50.333,209.297 50.108,209.556 49.833 C 210.065 49.295,210.074 49.252,209.627 49.512 M216.297 49.593 C 217.064 50.130,217.228 50.753,217.325 53.488 L 217.417 56.060 222.000 56.123 C 228.129 56.206,228.169 56.227,228.355 59.333 L 228.460 61.083 228.438 59.303 C 228.399 56.079,228.131 55.934,222.060 55.865 L 217.536 55.814 217.470 53.365 C 217.427 51.753,217.328 50.774,217.182 50.500 C 216.884 49.945,216.317 49.333,216.101 49.333 C 216.004 49.333,216.093 49.450,216.297 49.593 M269.773 49.773 C 269.531 50.014,269.333 50.289,269.333 50.384 C 269.333 50.478,269.352 50.524,269.375 50.485 C 269.398 50.447,269.637 50.172,269.906 49.874 C 270.493 49.226,270.394 49.151,269.773 49.773 M276.966 49.881 C 277.260 50.228,277.510 50.528,277.523 50.547 C 277.535 50.567,277.591 51.783,277.648 53.250 L 277.750 55.917 279.667 56.034 C 283.003 56.237,287.501 56.266,287.317 56.083 C 287.217 55.983,285.301 55.895,282.492 55.863 L 277.833 55.810 277.832 53.613 C 277.831 51.036,277.690 50.403,276.967 49.741 L 276.432 49.250 276.966 49.881 M208.768 50.764 C 208.632 51.119,208.671 76.980,208.808 77.468 C 208.868 77.680,208.917 71.699,208.917 64.177 C 208.917 56.655,208.906 50.500,208.893 50.500 C 208.880 50.500,208.823 50.619,208.768 50.764 M310.715 51.171 C 310.758 51.311,310.885 51.860,310.995 52.392 C 311.105 52.924,311.233 53.322,311.279 53.276 C 311.399 53.157,311.025 51.464,310.813 51.167 C 310.656 50.946,310.644 50.946,310.715 51.171 M322.080 51.902 C 321.930 52.418,321.838 52.930,321.874 53.039 C 321.911 53.149,322.062 52.756,322.211 52.166 C 322.548 50.829,322.450 50.632,322.080 51.902 M7.693 51.364 C 6.579 51.613,6.939 51.660,8.375 51.453 C 9.326 51.316,10.007 51.316,10.958 51.453 C 12.455 51.669,12.739 51.615,11.503 51.350 C 10.489 51.132,8.701 51.139,7.693 51.364 M269.079 63.417 C 269.079 70.200,269.100 72.951,269.125 69.529 C 269.150 66.108,269.150 60.558,269.125 57.196 C 269.100 53.834,269.079 56.633,269.079 63.417 M295.521 52.028 C 295.320 53.055,295.132 54.662,295.242 54.417 C 295.362 54.149,295.823 51.267,295.756 51.201 C 295.723 51.167,295.617 51.540,295.521 52.028 M337.383 51.500 C 337.436 51.729,337.565 52.554,337.670 53.333 C 337.867 54.797,338.004 55.250,337.994 54.403 C 337.986 53.718,337.546 51.322,337.404 51.192 C 337.339 51.132,337.330 51.271,337.383 51.500 M6.016 51.926 C 5.705 52.061,5.491 52.214,5.542 52.265 C 5.593 52.316,5.924 52.205,6.276 52.019 C 7.019 51.627,6.847 51.565,6.016 51.926 M13.167 52.083 C 13.712 52.395,14.007 52.391,13.593 52.078 C 13.415 51.943,13.153 51.836,13.010 51.839 C 12.843 51.843,12.900 51.931,13.167 52.083 M127.122 52.070 C 126.685 52.187,126.273 52.344,126.206 52.418 C 126.138 52.492,126.233 52.498,126.417 52.431 C 127.587 52.003,130.127 51.910,131.667 52.239 C 131.896 52.288,131.783 52.222,131.417 52.093 C 130.581 51.800,128.176 51.786,127.122 52.070 M4.562 52.808 C 3.215 53.784,1.482 56.256,1.507 57.167 C 1.511 57.304,1.695 56.982,1.916 56.450 C 2.434 55.202,3.330 53.989,4.307 53.215 C 5.358 52.382,5.414 52.333,5.308 52.333 C 5.258 52.333,4.922 52.547,4.562 52.808 M132.181 52.397 C 132.351 52.552,134.000 53.330,134.000 53.256 C 134.000 53.162,132.408 52.333,132.228 52.333 C 132.164 52.333,132.142 52.362,132.181 52.397 M14.250 52.610 C 14.342 52.696,14.768 53.046,15.198 53.386 C 15.628 53.727,16.222 54.380,16.518 54.836 C 17.112 55.753,17.308 55.924,16.933 55.198 C 16.570 54.496,15.279 53.126,14.643 52.768 C 14.335 52.595,14.158 52.523,14.250 52.610 M125.292 52.762 C 124.645 53.113,124.719 53.234,125.375 52.900 C 126.003 52.580,126.114 52.497,125.903 52.507 C 125.819 52.510,125.544 52.625,125.292 52.762 M123.866 53.740 C 123.184 54.283,122.164 55.429,122.169 55.648 C 122.171 55.704,122.416 55.461,122.715 55.108 C 123.014 54.755,123.594 54.176,124.004 53.821 C 124.928 53.022,124.836 52.969,123.866 53.740 M134.667 53.838 C 134.987 54.139,135.460 54.618,135.716 54.901 C 135.990 55.203,136.116 55.279,136.022 55.083 C 135.854 54.737,134.995 53.895,134.417 53.511 C 134.233 53.389,134.346 53.536,134.667 53.838 M321.340 55.278 C 320.980 57.125,320.961 57.250,321.067 57.149 C 321.204 57.020,321.694 54.472,321.600 54.378 C 321.561 54.339,321.444 54.744,321.340 55.278 M311.558 54.917 C 311.611 55.192,311.745 55.902,311.856 56.496 C 311.967 57.090,312.088 57.485,312.125 57.374 C 312.202 57.143,311.712 54.654,311.561 54.511 C 311.506 54.459,311.504 54.642,311.558 54.917 M96.794 55.118 C 97.001 55.158,97.301 55.156,97.460 55.115 C 97.620 55.073,97.450 55.040,97.083 55.042 C 96.717 55.044,96.586 55.078,96.794 55.118 M42.127 55.285 C 42.334 55.324,42.634 55.323,42.794 55.281 C 42.953 55.239,42.783 55.207,42.417 55.209 C 42.050 55.211,41.920 55.245,42.127 55.285 M187.044 55.453 C 187.297 55.491,187.672 55.490,187.877 55.451 C 188.082 55.411,187.875 55.380,187.417 55.381 C 186.958 55.382,186.791 55.415,187.044 55.453 M136.597 56.228 C 136.821 56.628,137.155 57.510,137.339 58.186 C 137.636 59.278,137.663 59.323,137.575 58.583 C 137.476 57.744,136.563 55.500,136.320 55.500 C 136.249 55.500,136.373 55.828,136.597 56.228 M184.125 55.618 C 184.331 55.657,184.669 55.657,184.875 55.618 C 185.081 55.578,184.912 55.545,184.500 55.545 C 184.088 55.545,183.919 55.578,184.125 55.618 M190.125 55.618 C 190.331 55.657,190.669 55.657,190.875 55.618 C 191.081 55.578,190.912 55.545,190.500 55.545 C 190.088 55.545,189.919 55.578,190.125 55.618 M181.333 55.956 C 180.737 56.098,180.325 56.239,180.417 56.269 C 180.508 56.298,181.183 56.182,181.917 56.010 C 182.650 55.838,183.063 55.697,182.833 55.696 C 182.604 55.696,181.929 55.813,181.333 55.956 M192.917 56.010 C 194.372 56.352,194.608 56.385,194.453 56.231 C 194.320 56.098,192.348 55.676,191.917 55.688 C 191.733 55.693,192.183 55.838,192.917 56.010 M303.274 55.946 C 303.225 56.113,303.146 56.962,303.099 57.833 C 302.995 59.752,303.105 59.498,303.315 57.333 C 303.465 55.781,303.452 55.340,303.274 55.946 M328.441 55.946 C 328.263 56.546,327.981 58.369,328.054 58.443 C 328.095 58.484,328.243 57.895,328.383 57.134 C 328.620 55.849,328.650 55.238,328.441 55.946 M329.746 56.250 C 329.790 56.617,329.909 57.704,330.010 58.667 C 330.112 59.629,330.236 60.454,330.287 60.500 C 330.337 60.546,330.334 60.208,330.280 59.750 C 330.226 59.292,330.131 58.279,330.070 57.500 C 330.009 56.721,329.893 55.971,329.813 55.833 C 329.720 55.674,329.696 55.824,329.746 56.250 M121.658 56.516 C 121.467 56.892,121.339 57.228,121.374 57.262 C 121.409 57.297,121.600 56.990,121.800 56.580 C 122.254 55.645,122.131 55.590,121.658 56.516 M234.833 55.944 C 233.832 56.146,234.313 56.242,235.861 56.150 C 237.516 56.052,238.851 56.088,239.667 56.253 C 240.057 56.333,240.062 56.325,239.750 56.134 C 239.410 55.927,235.643 55.781,234.833 55.944 M256.417 55.944 C 256.142 55.989,255.842 56.100,255.750 56.191 C 255.640 56.301,255.752 56.313,256.083 56.226 C 256.358 56.155,257.483 56.096,258.583 56.096 C 259.683 56.096,260.808 56.155,261.083 56.226 C 261.479 56.330,261.541 56.314,261.381 56.151 C 261.173 55.939,257.411 55.782,256.417 55.944 M17.349 56.167 C 17.343 56.212,17.445 56.587,17.575 57.000 C 17.705 57.413,17.813 57.600,17.815 57.417 C 17.818 57.126,17.379 55.946,17.349 56.167 M179.254 56.599 C 178.890 56.733,178.515 56.920,178.421 57.016 C 178.327 57.112,178.662 57.029,179.167 56.831 C 180.505 56.307,180.577 56.115,179.254 56.599 M233.750 56.461 C 233.658 56.528,233.473 56.733,233.338 56.917 C 233.157 57.163,233.212 57.144,233.547 56.846 C 233.955 56.482,234.079 56.329,233.958 56.336 C 233.935 56.337,233.842 56.394,233.750 56.461 M240.514 56.770 C 240.736 57.056,240.950 57.260,240.991 57.223 C 241.032 57.186,240.851 56.953,240.589 56.703 L 240.112 56.250 240.514 56.770 M254.948 56.801 C 254.702 57.058,254.502 57.377,254.505 57.509 C 254.508 57.667,254.574 57.635,254.694 57.417 C 254.796 57.233,255.032 56.915,255.218 56.708 C 255.708 56.168,255.480 56.246,254.948 56.801 M261.978 56.693 C 262.189 56.936,262.471 57.423,262.605 57.776 L 262.849 58.417 262.754 57.833 C 262.696 57.477,262.452 57.056,262.126 56.750 C 261.695 56.345,261.667 56.334,261.978 56.693 M287.936 56.667 C 288.130 56.896,288.371 57.233,288.472 57.417 C 288.610 57.666,288.658 57.684,288.662 57.490 C 288.664 57.346,288.423 57.009,288.126 56.740 C 287.700 56.354,287.660 56.339,287.936 56.667 M304.734 56.917 C 304.975 58.359,305.199 59.356,305.266 59.290 C 305.354 59.202,304.839 56.448,304.714 56.333 C 304.664 56.288,304.673 56.550,304.734 56.917 M195.189 56.578 C 195.339 56.728,196.500 57.170,196.500 57.077 C 196.500 57.025,196.240 56.874,195.922 56.741 C 195.342 56.499,195.044 56.433,195.189 56.578 M294.778 57.399 C 294.607 58.652,294.449 60.921,294.540 60.833 C 294.655 60.722,295.047 56.825,294.953 56.731 C 294.913 56.691,294.834 56.991,294.778 57.399 M338.167 57.174 C 338.167 57.721,338.703 62.092,338.780 62.164 C 338.873 62.252,338.788 61.242,338.472 58.542 C 338.319 57.234,338.167 56.550,338.167 57.174 M177.542 57.498 C 177.244 57.680,177.000 57.865,177.000 57.909 C 177.000 57.953,177.262 57.834,177.583 57.645 C 177.904 57.455,178.167 57.270,178.167 57.234 C 178.167 57.127,178.114 57.149,177.542 57.498 M196.667 57.242 C 196.667 57.288,196.910 57.449,197.208 57.600 C 197.506 57.752,198.162 58.211,198.667 58.620 L 199.583 59.365 198.763 58.588 C 198.038 57.901,196.667 57.021,196.667 57.242 M232.879 57.601 C 232.666 58.121,232.755 75.503,232.974 76.083 C 233.156 76.569,233.159 76.564,233.076 75.917 C 232.894 74.495,232.800 59.242,232.968 58.333 C 233.143 57.384,233.103 57.053,232.879 57.601 M120.992 58.358 C 120.757 59.224,120.865 61.807,121.156 62.267 C 121.337 62.553,121.346 62.543,121.254 62.167 C 121.040 61.291,120.976 59.219,121.142 58.505 C 121.367 57.534,121.247 57.417,120.992 58.358 M241.236 66.333 C 241.269 72.555,241.337 75.093,241.486 75.557 C 241.747 76.375,241.863 76.279,241.661 75.412 C 241.577 75.048,241.502 71.225,241.494 66.917 C 241.487 62.608,241.415 58.783,241.336 58.417 C 241.248 58.016,241.208 61.175,241.236 66.333 M176.171 58.495 C 175.893 58.768,175.426 59.274,175.135 59.620 C 174.843 59.967,175.106 59.765,175.719 59.171 C 176.332 58.578,176.833 58.072,176.833 58.046 C 176.833 57.910,176.626 58.051,176.171 58.495 M320.500 59.417 C 320.386 60.021,320.330 60.552,320.376 60.598 C 320.422 60.644,320.553 60.187,320.667 59.583 C 320.781 58.979,320.836 58.448,320.791 58.402 C 320.745 58.356,320.614 58.813,320.500 59.417 M312.389 59.083 C 312.748 60.983,312.871 61.518,312.933 61.456 C 313.027 61.362,312.537 58.813,312.401 58.684 C 312.342 58.629,312.337 58.808,312.389 59.083 M37.048 60.250 C 37.049 60.708,37.081 60.876,37.120 60.623 C 37.158 60.369,37.157 59.994,37.117 59.789 C 37.078 59.584,37.046 59.792,37.048 60.250 M200.212 60.543 C 200.599 61.142,200.942 61.608,200.973 61.579 C 201.069 61.489,200.183 60.066,199.835 59.752 C 199.655 59.588,199.824 59.944,200.212 60.543 M305.448 60.389 C 305.500 60.832,305.642 61.582,305.765 62.056 L 305.988 62.917 305.904 62.167 C 305.858 61.754,305.716 61.004,305.587 60.500 L 305.354 59.583 305.448 60.389 M327.506 60.612 C 327.146 62.458,327.128 62.583,327.234 62.483 C 327.371 62.353,327.860 59.805,327.767 59.711 C 327.728 59.672,327.611 60.077,327.506 60.612 M17.756 60.944 C 17.580 61.880,16.792 63.513,16.176 64.213 C 15.877 64.554,15.696 64.831,15.774 64.828 C 16.374 64.806,18.353 60.797,17.958 60.403 C 17.911 60.356,17.821 60.599,17.756 60.944 M173.837 61.708 C 173.481 62.465,173.148 63.346,173.096 63.667 C 173.037 64.036,173.146 63.852,173.393 63.167 C 173.608 62.571,173.984 61.690,174.228 61.208 C 174.472 60.727,174.630 60.333,174.578 60.333 C 174.527 60.333,174.193 60.952,173.837 61.708 M137.339 61.791 C 137.221 62.318,137.089 62.862,137.046 63.000 C 136.977 63.222,136.988 63.222,137.147 63.000 C 137.346 62.720,137.735 61.013,137.625 60.902 C 137.586 60.863,137.457 61.263,137.339 61.791 M228.097 61.464 C 228.029 61.673,227.774 62.037,227.529 62.272 C 227.136 62.651,227.127 62.679,227.458 62.511 C 227.917 62.279,228.391 61.588,228.292 61.297 C 228.249 61.172,228.168 61.240,228.097 61.464 M288.351 61.709 C 287.799 62.717,287.668 62.743,282.500 62.833 L 277.750 62.917 277.747 69.333 L 277.744 75.750 277.791 69.375 L 277.837 63.000 282.377 63.000 C 286.370 63.000,286.986 62.964,287.488 62.708 C 288.057 62.418,288.805 61.583,288.642 61.420 C 288.595 61.372,288.464 61.502,288.351 61.709 M302.662 61.431 C 302.659 61.515,302.548 62.633,302.415 63.917 C 302.154 66.441,302.125 66.931,302.244 66.812 C 302.366 66.690,302.858 61.470,302.757 61.369 C 302.707 61.319,302.664 61.347,302.662 61.431 M330.372 61.833 C 330.372 62.154,330.406 62.285,330.448 62.125 C 330.490 61.965,330.490 61.702,330.448 61.542 C 330.406 61.381,330.372 61.512,330.372 61.833 M1.765 62.167 C 1.992 63.059,3.537 65.168,4.228 65.528 C 4.436 65.636,4.329 65.463,3.967 65.107 C 3.134 64.288,2.567 63.525,2.073 62.559 C 1.845 62.114,1.707 61.938,1.765 62.167 M319.852 62.651 C 319.586 63.892,319.441 64.928,319.546 64.833 C 319.670 64.721,320.188 61.966,320.101 61.879 C 320.063 61.841,319.951 62.189,319.852 62.651 M201.268 62.500 C 201.330 62.729,201.483 63.179,201.607 63.500 L 201.832 64.083 201.730 63.500 C 201.673 63.179,201.521 62.729,201.391 62.500 L 201.154 62.083 201.268 62.500 M187.042 62.619 C 187.294 62.658,187.706 62.658,187.958 62.619 C 188.210 62.581,188.004 62.550,187.500 62.550 C 186.996 62.550,186.790 62.581,187.042 62.619 M330.538 63.250 C 330.534 63.708,330.631 64.871,330.754 65.833 L 330.976 67.583 330.890 66.000 C 330.842 65.129,330.745 63.967,330.673 63.417 L 330.544 62.417 330.538 63.250 M121.333 62.728 C 121.333 62.939,121.814 64.000,121.910 64.000 C 121.962 64.000,121.889 63.723,121.747 63.384 C 121.485 62.758,121.333 62.517,121.333 62.728 M184.578 62.822 C 184.299 62.889,183.924 63.035,183.744 63.146 C 183.446 63.331,183.454 63.339,183.833 63.229 C 184.063 63.163,184.625 63.016,185.083 62.902 C 185.542 62.788,185.729 62.696,185.500 62.698 C 185.271 62.699,184.856 62.755,184.578 62.822 M190.167 62.995 C 191.446 63.381,191.554 63.394,191.000 63.096 C 190.771 62.973,190.246 62.826,189.833 62.770 C 189.179 62.682,189.221 62.710,190.167 62.995 M222.083 62.829 L 217.417 62.917 217.414 69.500 L 217.411 76.083 217.457 69.542 L 217.504 63.000 222.044 62.997 C 224.687 62.996,226.688 62.927,226.833 62.833 C 226.971 62.744,227.008 62.688,226.917 62.707 C 226.825 62.726,224.650 62.781,222.083 62.829 M313.286 63.413 C 313.339 63.870,313.440 64.432,313.510 64.663 L 313.638 65.083 313.636 64.667 C 313.635 64.438,313.535 63.875,313.412 63.417 L 313.190 62.583 313.286 63.413 M182.720 63.755 C 182.223 64.147,181.500 65.132,181.500 65.418 C 181.500 65.489,181.696 65.255,181.937 64.898 C 182.177 64.542,182.608 64.047,182.895 63.798 C 183.553 63.229,183.427 63.198,182.720 63.755 M192.089 63.936 C 192.459 64.292,192.893 64.771,193.052 65.000 L 193.343 65.417 193.151 65.000 C 192.914 64.484,192.195 63.696,191.750 63.464 C 191.567 63.368,191.719 63.581,192.089 63.936 M136.570 63.864 C 136.499 63.985,136.333 64.252,136.201 64.458 C 136.069 64.665,136.003 64.833,136.053 64.833 C 136.204 64.833,136.876 63.821,136.785 63.729 C 136.738 63.683,136.642 63.743,136.570 63.864 M293.935 64.750 C 293.871 65.392,293.775 66.367,293.721 66.917 C 293.667 67.467,293.666 67.877,293.719 67.829 C 293.853 67.706,294.221 64.079,294.128 63.806 C 294.086 63.683,293.999 64.108,293.935 64.750 M326.667 64.750 C 326.553 65.354,326.497 65.886,326.543 65.932 C 326.589 65.977,326.719 65.521,326.833 64.917 C 326.947 64.313,327.003 63.781,326.957 63.735 C 326.911 63.689,326.781 64.146,326.667 64.750 M306.234 64.417 C 306.471 65.833,306.699 66.857,306.762 66.793 C 306.856 66.700,306.364 63.973,306.231 63.851 C 306.171 63.795,306.173 64.050,306.234 64.417 M122.152 64.472 C 122.242 64.640,122.448 64.884,122.609 65.014 C 122.818 65.181,122.793 65.093,122.524 64.708 C 122.112 64.121,121.888 63.979,122.152 64.472 M339.118 65.500 C 339.278 67.553,339.493 68.656,339.391 66.902 C 339.342 66.069,339.239 65.131,339.161 64.818 C 339.067 64.439,339.052 64.667,339.118 65.500 M15.162 65.256 C 15.042 65.401,14.615 65.712,14.214 65.947 C 13.813 66.182,13.521 66.409,13.564 66.453 C 13.608 66.497,14.001 66.281,14.439 65.974 C 14.876 65.668,15.310 65.364,15.404 65.301 C 15.497 65.237,15.530 65.141,15.477 65.088 C 15.424 65.035,15.282 65.111,15.162 65.256 M135.324 65.593 C 134.559 66.383,133.368 67.131,132.112 67.612 C 131.439 67.869,131.285 67.969,131.667 67.899 C 132.816 67.688,136.751 65.056,135.991 65.006 C 135.940 65.003,135.640 65.267,135.324 65.593 M202.100 65.417 C 202.244 66.085,202.388 83.059,202.257 83.913 C 202.113 84.855,201.699 85.314,200.654 85.692 C 199.851 85.982,199.820 86.009,200.377 85.936 C 201.191 85.829,201.889 85.321,202.241 84.579 C 202.604 83.815,202.565 66.073,202.199 65.333 C 201.996 64.922,201.994 64.923,202.100 65.417 M172.581 65.535 C 172.422 66.009,172.263 82.783,172.408 83.751 C 172.466 84.138,172.619 84.596,172.748 84.769 C 172.950 85.039,172.950 84.990,172.749 84.417 C 172.466 83.612,172.403 69.667,172.669 66.929 C 172.834 65.242,172.809 64.855,172.581 65.535 M123.583 66.098 C 124.449 66.877,126.051 67.751,126.917 67.916 C 127.192 67.969,126.967 67.836,126.417 67.622 C 125.285 67.181,124.348 66.610,123.512 65.852 C 123.197 65.567,122.897 65.337,122.845 65.341 C 122.793 65.345,123.125 65.686,123.583 66.098 M181.147 66.276 C 180.990 66.754,180.931 69.059,180.914 75.333 L 180.892 83.750 181.000 75.333 C 181.073 69.673,181.172 66.729,181.301 66.344 C 181.407 66.030,181.464 65.741,181.426 65.704 C 181.388 65.666,181.263 65.924,181.147 66.276 M5.143 66.157 C 5.360 66.346,5.622 66.499,5.727 66.497 C 5.926 66.495,5.649 66.274,5.083 65.985 C 4.821 65.851,4.834 65.888,5.143 66.157 M193.608 66.333 C 193.673 66.563,193.769 70.663,193.821 75.445 C 193.874 80.227,193.954 84.177,194.000 84.223 C 194.046 84.269,194.065 82.569,194.042 80.445 C 194.019 78.321,193.979 74.371,193.953 71.667 C 193.919 68.162,193.846 66.630,193.698 66.333 L 193.491 65.917 193.608 66.333 M319.021 66.862 C 318.719 68.395,318.619 69.086,318.714 69.000 C 318.839 68.886,319.354 66.131,319.266 66.044 C 319.227 66.005,319.117 66.373,319.021 66.862 M12.972 66.584 C 12.925 66.630,12.332 66.819,11.652 67.004 C 10.569 67.299,10.519 67.328,11.250 67.239 C 12.013 67.147,13.656 66.547,13.236 66.514 C 13.137 66.506,13.018 66.538,12.972 66.584 M6.750 66.923 C 7.025 67.049,7.400 67.150,7.583 67.148 C 7.767 67.146,7.579 67.038,7.167 66.908 C 6.241 66.616,6.093 66.622,6.750 66.923 M314.030 67.167 C 314.031 67.396,314.132 67.958,314.254 68.417 L 314.477 69.250 314.380 68.420 C 314.327 67.963,314.227 67.401,314.156 67.170 L 314.029 66.750 314.030 67.167 M326.033 67.874 C 325.732 69.285,325.615 70.090,325.726 69.988 C 325.856 69.869,326.376 67.154,326.287 67.064 C 326.250 67.028,326.136 67.392,326.033 67.874 M302.039 68.000 C 302.039 68.321,302.073 68.452,302.115 68.292 C 302.157 68.131,302.157 67.869,302.115 67.708 C 302.073 67.548,302.039 67.679,302.039 68.000 M331.039 68.167 C 331.039 68.487,331.073 68.619,331.115 68.458 C 331.157 68.298,331.157 68.035,331.115 67.875 C 331.073 67.715,331.039 67.846,331.039 68.167 M307.110 68.747 C 307.168 69.203,307.278 69.766,307.355 69.997 C 307.442 70.262,307.456 70.079,307.392 69.500 C 307.337 68.996,307.227 68.433,307.148 68.250 C 307.058 68.042,307.044 68.228,307.110 68.747 M339.539 69.000 C 339.539 69.321,339.573 69.452,339.615 69.292 C 339.657 69.131,339.657 68.869,339.615 68.708 C 339.573 68.548,339.539 68.679,339.539 69.000 M301.843 69.333 C 301.834 69.471,301.718 70.633,301.585 71.917 C 301.316 74.509,301.300 74.755,301.408 74.648 C 301.534 74.522,302.036 69.522,301.945 69.296 C 301.884 69.145,301.855 69.155,301.843 69.333 M331.167 69.577 C 331.167 70.062,331.707 75.263,331.763 75.319 C 331.802 75.357,331.833 75.237,331.833 75.051 C 331.833 74.409,331.320 69.598,331.244 69.521 C 331.201 69.479,331.167 69.504,331.167 69.577 M293.330 70.014 C 293.328 70.144,293.217 71.225,293.082 72.417 C 292.817 74.755,292.794 75.095,292.906 74.982 C 293.030 74.859,293.528 69.972,293.427 69.872 C 293.376 69.820,293.332 69.884,293.330 70.014 M318.091 71.508 C 317.937 72.346,317.843 73.066,317.883 73.106 C 317.924 73.146,318.088 72.498,318.250 71.667 C 318.412 70.835,318.505 70.116,318.457 70.069 C 318.410 70.021,318.245 70.669,318.091 71.508 M339.705 70.667 C 339.705 70.987,339.740 71.119,339.782 70.958 C 339.823 70.798,339.823 70.535,339.782 70.375 C 339.740 70.215,339.705 70.346,339.705 70.667 M314.724 70.750 C 314.777 71.025,314.909 71.721,315.016 72.297 C 315.124 72.872,315.245 73.310,315.286 73.270 C 315.383 73.173,314.876 70.485,314.735 70.352 C 314.676 70.296,314.671 70.475,314.724 70.750 M325.200 72.041 C 324.893 73.477,324.782 74.256,324.899 74.148 C 325.037 74.020,325.552 71.330,325.457 71.235 C 325.418 71.196,325.303 71.559,325.200 72.041 M339.943 72.667 C 339.994 73.446,340.098 74.421,340.174 74.833 C 340.272 75.361,340.285 75.164,340.219 74.167 C 340.168 73.387,340.064 72.412,339.988 72.000 C 339.890 71.472,339.877 71.668,339.943 72.667 M307.864 72.333 C 307.865 72.563,307.965 73.125,308.088 73.583 L 308.310 74.417 308.214 73.587 C 308.161 73.130,308.060 72.568,307.990 72.337 L 307.862 71.917 307.864 72.333 M254.130 74.333 C 253.900 76.490,253.143 77.814,251.692 78.593 C 251.266 78.822,251.104 78.960,251.333 78.900 C 253.037 78.450,254.551 75.822,254.304 73.745 C 254.267 73.433,254.202 73.650,254.130 74.333 M262.607 74.708 C 262.547 75.465,262.461 76.383,262.416 76.750 C 262.339 77.370,262.345 77.382,262.498 76.917 C 262.679 76.370,262.934 73.333,262.799 73.333 C 262.753 73.333,262.667 73.952,262.607 74.708 M317.329 75.112 C 316.980 76.491,316.242 76.558,315.805 75.250 C 315.652 74.792,315.521 74.550,315.513 74.714 C 315.468 75.714,316.305 76.666,316.891 76.282 C 317.274 76.031,317.772 74.734,317.639 74.333 C 317.604 74.228,317.464 74.578,317.329 75.112 M324.333 76.333 C 324.223 76.987,324.170 77.559,324.216 77.605 C 324.262 77.651,324.390 77.154,324.500 76.500 C 324.610 75.846,324.663 75.274,324.617 75.228 C 324.571 75.182,324.444 75.680,324.333 76.333 M308.574 76.083 C 308.819 77.459,309.035 78.354,309.106 78.283 C 309.193 78.196,308.676 75.619,308.546 75.500 C 308.497 75.454,308.509 75.717,308.574 76.083 M301.205 76.167 C 301.205 76.487,301.240 76.619,301.282 76.458 C 301.323 76.298,301.323 76.035,301.282 75.875 C 301.240 75.715,301.205 75.846,301.205 76.167 M331.872 76.333 C 331.872 76.654,331.906 76.785,331.948 76.625 C 331.990 76.465,331.990 76.202,331.948 76.042 C 331.906 75.881,331.872 76.012,331.872 76.333 M340.372 76.333 C 340.372 76.654,340.406 76.785,340.448 76.625 C 340.490 76.465,340.490 76.202,340.448 76.042 C 340.406 75.881,340.372 76.012,340.372 76.333 M241.840 76.430 C 241.815 77.103,243.402 78.675,244.333 78.900 C 244.563 78.955,244.450 78.859,244.083 78.686 C 243.348 78.339,242.515 77.522,242.109 76.750 C 241.965 76.475,241.844 76.331,241.840 76.430 M277.939 76.667 C 278.221 77.778,278.841 78.540,279.786 78.940 C 280.694 79.324,280.801 79.187,279.917 78.772 C 278.938 78.313,278.641 78.009,278.176 76.998 C 277.987 76.587,277.880 76.438,277.939 76.667 M44.042 77.417 C 44.044 77.783,44.078 77.914,44.118 77.706 C 44.158 77.499,44.156 77.199,44.115 77.040 C 44.073 76.880,44.040 77.050,44.042 77.417 M217.669 77.083 C 217.666 77.655,219.313 79.243,219.606 78.950 C 219.654 78.901,219.424 78.734,219.094 78.577 C 218.743 78.411,218.324 78.008,218.082 77.605 C 217.855 77.226,217.669 76.992,217.669 77.083 M292.456 77.833 C 292.392 78.246,292.305 79.183,292.261 79.917 C 292.184 81.232,292.186 81.226,292.426 79.500 C 292.559 78.537,292.647 77.600,292.620 77.417 C 292.593 77.233,292.519 77.421,292.456 77.833 M300.961 78.000 C 300.897 78.504,300.808 79.554,300.764 80.333 C 300.688 81.667,300.697 81.637,300.924 79.833 C 301.057 78.779,301.146 77.729,301.122 77.500 C 301.098 77.271,301.025 77.496,300.961 78.000 M332.054 78.417 C 332.370 81.647,332.553 83.169,332.619 83.103 C 332.722 83.000,332.181 77.623,332.056 77.509 C 332.001 77.458,332.000 77.867,332.054 78.417 M340.559 78.333 C 340.907 81.521,341.068 82.713,341.126 82.539 C 341.209 82.288,340.677 77.620,340.552 77.503 C 340.500 77.456,340.503 77.829,340.559 78.333 M233.418 78.167 C 233.569 78.873,233.797 79.500,233.904 79.500 C 233.995 79.500,233.507 77.790,233.380 77.667 C 233.333 77.621,233.350 77.846,233.418 78.167 M269.344 78.167 C 269.334 78.531,269.761 80.068,269.974 80.435 C 270.074 80.608,270.156 80.712,270.155 80.667 C 270.151 80.425,269.350 77.955,269.344 78.167 M209.069 78.750 C 209.353 79.975,209.519 80.492,209.655 80.576 C 209.735 80.626,209.650 80.160,209.466 79.541 C 209.119 78.377,208.865 77.871,209.069 78.750 M261.846 78.816 C 261.780 79.990,259.586 83.089,258.185 83.988 C 257.221 84.607,257.065 84.813,257.875 84.397 C 259.364 83.633,262.278 79.634,261.949 78.808 C 261.876 78.625,261.857 78.626,261.846 78.816 M221.375 79.322 C 221.810 79.382,222.523 79.382,222.958 79.322 C 223.560 79.238,223.370 79.211,222.167 79.211 C 220.963 79.211,220.773 79.238,221.375 79.322 M227.522 79.418 C 228.118 79.742,228.205 80.001,228.334 81.833 L 228.445 83.417 228.473 82.036 C 228.509 80.222,228.032 79.133,227.219 79.173 C 227.145 79.177,227.281 79.287,227.522 79.418 M246.708 79.378 C 247.327 79.457,248.340 79.458,248.958 79.381 C 249.960 79.257,249.836 79.241,247.833 79.238 C 245.828 79.235,245.706 79.251,246.708 79.378 M281.797 79.290 C 282.282 79.324,283.032 79.323,283.464 79.289 C 283.896 79.255,283.500 79.227,282.583 79.228 C 281.667 79.228,281.313 79.256,281.797 79.290 M287.750 79.360 C 287.933 79.461,288.213 79.702,288.371 79.897 C 288.530 80.091,288.661 80.169,288.663 80.071 C 288.668 79.815,287.941 79.166,287.656 79.172 C 287.502 79.175,287.535 79.242,287.750 79.360 M323.518 80.312 C 323.403 80.891,323.346 81.402,323.391 81.446 C 323.501 81.557,323.875 79.707,323.792 79.458 C 323.755 79.348,323.632 79.732,323.518 80.312 M309.419 80.083 C 309.507 80.838,309.828 82.061,309.915 81.974 C 309.946 81.942,309.830 81.354,309.656 80.667 C 309.482 79.979,309.375 79.717,309.419 80.083 M234.008 79.700 C 233.980 80.106,235.279 82.333,235.543 82.333 C 235.643 82.333,235.570 82.165,235.381 81.958 C 235.191 81.752,234.807 81.133,234.526 80.583 C 234.246 80.033,234.012 79.636,234.008 79.700 M209.833 80.896 C 209.833 81.076,210.495 82.333,210.590 82.333 C 210.636 82.333,210.513 82.015,210.316 81.625 C 209.930 80.859,209.833 80.713,209.833 80.896 M270.167 80.944 C 270.167 81.423,271.636 83.390,272.558 84.147 C 272.847 84.383,272.626 84.081,272.066 83.475 C 271.507 82.870,270.882 82.027,270.676 81.604 C 270.330 80.888,270.167 80.676,270.167 80.944 M292.039 81.833 C 292.039 82.154,292.073 82.285,292.115 82.125 C 292.157 81.965,292.157 81.702,292.115 81.542 C 292.073 81.381,292.039 81.512,292.039 81.833 M300.539 82.333 C 300.539 82.654,300.573 82.785,300.615 82.625 C 300.657 82.465,300.657 82.202,300.615 82.042 C 300.573 81.881,300.539 82.012,300.539 82.333 M310.000 82.228 C 310.000 82.488,310.479 83.468,310.662 83.580 C 310.770 83.647,310.693 83.375,310.492 82.976 C 310.097 82.194,310.000 82.046,310.000 82.228 M322.750 82.833 C 322.584 83.201,322.344 83.589,322.215 83.696 C 322.087 83.802,321.906 84.045,321.814 84.236 C 321.721 84.427,321.873 84.321,322.151 84.000 C 322.678 83.393,323.248 82.359,323.124 82.235 C 323.084 82.195,322.916 82.464,322.750 82.833 M211.140 83.116 C 211.628 83.747,212.857 84.762,213.500 85.065 C 213.637 85.129,213.563 85.049,213.333 84.886 C 213.104 84.724,212.396 84.102,211.759 83.504 C 210.796 82.600,210.692 82.534,211.140 83.116 M236.539 83.376 C 236.990 83.812,237.522 84.245,237.721 84.339 C 237.952 84.447,237.905 84.371,237.592 84.130 C 237.322 83.921,236.790 83.487,236.410 83.167 C 235.862 82.704,235.889 82.748,236.539 83.376 M73.872 83.167 C 73.872 83.487,73.906 83.619,73.948 83.458 C 73.990 83.298,73.990 83.035,73.948 82.875 C 73.906 82.715,73.872 82.846,73.872 83.167 M228.099 83.914 C 227.882 84.779,227.079 85.441,225.986 85.656 C 225.426 85.766,225.006 85.895,225.054 85.943 C 225.615 86.504,228.333 84.758,228.333 83.837 C 228.333 83.378,228.225 83.413,228.099 83.914 M332.670 83.808 C 332.666 84.083,333.185 85.204,333.275 85.114 C 333.310 85.079,333.190 84.720,333.007 84.316 C 332.824 83.913,332.672 83.684,332.670 83.808 M288.500 83.972 C 288.500 84.515,287.300 85.483,286.393 85.672 C 285.887 85.777,285.507 85.896,285.548 85.937 C 285.721 86.110,287.287 85.614,287.798 85.224 C 288.329 84.820,288.775 84.053,288.588 83.866 C 288.540 83.817,288.500 83.865,288.500 83.972 M311.005 84.069 C 311.319 84.479,312.494 85.335,312.733 85.328 C 312.834 85.325,312.633 85.148,312.286 84.935 C 311.939 84.722,311.454 84.368,311.208 84.149 C 310.920 83.893,310.848 83.864,311.005 84.069 M180.463 84.638 C 180.306 84.965,180.206 85.262,180.243 85.298 C 180.337 85.393,180.864 84.337,180.802 84.177 C 180.773 84.104,180.621 84.311,180.463 84.638 M348.340 84.215 C 348.329 84.719,349.512 85.824,350.167 85.920 L 350.750 86.006 350.094 85.751 C 349.279 85.434,348.851 85.061,348.567 84.417 C 348.425 84.095,348.344 84.023,348.340 84.215 M292.013 84.362 C 291.984 84.980,293.733 86.322,294.096 85.960 C 294.136 85.920,293.872 85.798,293.509 85.689 C 292.903 85.508,292.364 84.981,292.120 84.333 C 292.043 84.128,292.024 84.133,292.013 84.362 M300.009 84.644 C 299.771 85.220,299.459 85.440,298.417 85.768 C 297.938 85.919,297.860 85.981,298.141 85.989 C 299.018 86.014,300.483 84.867,300.295 84.302 C 300.260 84.196,300.131 84.350,300.009 84.644 M340.746 84.802 C 340.490 85.279,340.230 85.484,339.583 85.716 C 338.907 85.959,338.860 85.998,339.333 85.922 C 340.053 85.808,340.679 85.366,340.973 84.764 C 341.314 84.069,341.121 84.101,340.746 84.802 M356.666 84.431 C 356.664 84.858,355.840 85.552,355.077 85.770 C 354.337 85.981,354.318 85.998,354.893 85.927 C 355.842 85.811,357.137 84.748,356.773 84.384 C 356.714 84.325,356.666 84.347,356.666 84.431 M194.172 84.612 C 194.190 85.094,195.512 86.005,196.167 85.988 C 196.461 85.980,196.355 85.906,195.806 85.737 C 195.343 85.595,194.854 85.291,194.597 84.986 C 194.360 84.705,194.169 84.536,194.172 84.612 M238.167 84.582 C 238.167 84.696,239.187 85.202,239.263 85.125 C 239.300 85.089,239.068 84.935,238.748 84.783 C 238.428 84.630,238.167 84.540,238.167 84.582 M273.417 84.762 C 273.924 85.182,275.801 86.039,276.039 85.959 C 276.155 85.920,275.950 85.792,275.583 85.676 C 275.217 85.559,274.504 85.244,274.000 84.975 C 273.496 84.706,273.233 84.610,273.417 84.762 M320.867 84.867 C 320.565 85.054,320.353 85.242,320.397 85.286 C 320.503 85.392,321.500 84.799,321.500 84.631 C 321.500 84.469,321.529 84.458,320.867 84.867 M256.417 84.991 C 256.050 85.164,255.809 85.312,255.880 85.320 C 256.076 85.340,257.167 84.864,257.167 84.759 C 257.167 84.635,257.175 84.632,256.417 84.991 M173.071 85.313 C 173.224 85.561,174.279 86.001,174.692 85.988 C 174.943 85.981,174.802 85.890,174.300 85.736 C 173.869 85.603,173.471 85.421,173.415 85.331 C 173.359 85.240,173.239 85.167,173.147 85.167 C 173.055 85.167,173.021 85.233,173.071 85.313 M239.667 85.333 C 240.019 85.561,241.686 86.037,241.785 85.937 C 241.830 85.892,241.541 85.773,241.142 85.672 C 240.743 85.571,240.244 85.416,240.034 85.328 C 239.544 85.121,239.344 85.125,239.667 85.333 M179.780 85.442 C 179.721 85.501,179.315 85.653,178.878 85.778 L 178.083 86.005 178.815 85.932 C 179.373 85.876,180.430 85.333,179.980 85.333 C 179.930 85.333,179.840 85.382,179.780 85.442 M214.750 85.676 C 215.117 85.849,215.529 85.990,215.667 85.988 C 215.804 85.986,215.542 85.838,215.083 85.659 C 214.040 85.252,213.872 85.260,214.750 85.676 M254.617 85.620 C 254.086 85.759,253.683 85.905,253.722 85.944 C 253.822 86.044,255.384 85.651,255.575 85.477 C 255.662 85.398,255.700 85.341,255.658 85.350 C 255.617 85.359,255.149 85.480,254.617 85.620 M313.477 85.589 C 313.785 85.732,314.535 85.882,315.143 85.922 L 316.250 85.995 314.917 85.766 C 314.183 85.641,313.433 85.491,313.250 85.433 C 313.067 85.376,313.169 85.446,313.477 85.589 M319.809 85.413 C 319.766 85.457,319.134 85.606,318.407 85.745 L 317.083 85.998 318.118 85.919 C 319.005 85.851,320.591 85.386,320.069 85.347 C 319.970 85.339,319.853 85.369,319.809 85.413 M333.786 85.585 C 333.984 85.724,334.394 85.877,334.698 85.926 C 335.148 85.998,335.096 85.952,334.417 85.674 C 333.421 85.267,333.309 85.252,333.786 85.585 M217.000 86.357 C 217.742 86.577,222.560 86.573,223.333 86.351 C 223.830 86.208,223.772 86.198,222.941 86.280 C 221.564 86.416,218.601 86.423,217.417 86.293 C 216.571 86.201,216.507 86.210,217.000 86.357 M243.667 86.351 C 244.438 86.581,251.241 86.583,252.000 86.353 C 252.514 86.197,252.466 86.188,251.595 86.271 C 251.051 86.322,249.358 86.365,247.833 86.365 C 246.308 86.365,244.616 86.322,244.072 86.271 C 243.208 86.188,243.157 86.198,243.667 86.351 M277.417 86.359 C 278.042 86.585,282.872 86.579,283.667 86.351 C 284.157 86.210,284.090 86.200,283.250 86.283 C 281.885 86.419,278.766 86.422,277.750 86.288 C 277.030 86.194,276.985 86.203,277.417 86.359 M21.583 91.780 C 21.400 91.821,21.001 91.933,20.697 92.027 C 19.719 92.332,20.211 92.314,21.500 91.998 C 22.545 91.742,22.619 91.548,21.583 91.780 M25.417 91.986 C 25.600 92.058,25.975 92.163,26.250 92.218 L 26.750 92.320 26.250 92.084 C 25.975 91.954,25.600 91.850,25.417 91.851 L 25.083 91.854 25.417 91.986 M18.747 92.940 C 17.908 93.495,17.071 94.273,16.621 94.917 C 16.429 95.192,16.681 94.996,17.182 94.481 C 17.684 93.967,18.466 93.312,18.922 93.026 C 19.377 92.740,19.674 92.505,19.580 92.503 C 19.487 92.501,19.112 92.698,18.747 92.940 M27.333 92.675 C 27.947 93.091,28.256 93.190,27.857 92.843 C 27.640 92.654,27.378 92.501,27.273 92.503 C 27.169 92.504,27.196 92.581,27.333 92.675 M110.360 92.864 C 109.293 93.102,109.616 93.196,110.763 92.981 C 111.653 92.814,113.574 92.862,114.667 93.078 C 114.896 93.124,114.783 93.056,114.417 92.927 C 113.655 92.659,111.432 92.625,110.360 92.864 M29.183 94.020 C 29.696 94.516,30.351 95.333,30.639 95.836 C 30.928 96.339,31.164 96.671,31.165 96.574 C 31.170 96.037,29.322 93.690,28.583 93.296 C 28.400 93.198,28.670 93.524,29.183 94.020 M115.724 93.519 C 116.076 93.705,116.403 93.819,116.450 93.772 C 116.532 93.690,115.408 93.159,115.188 93.174 C 115.130 93.178,115.372 93.334,115.724 93.519 M107.749 93.972 C 106.784 94.584,105.478 95.890,105.137 96.583 C 105.047 96.767,105.181 96.654,105.434 96.333 C 106.280 95.264,107.248 94.422,108.254 93.879 C 108.802 93.584,109.138 93.341,109.000 93.339 C 108.862 93.338,108.299 93.622,107.749 93.972 M117.083 94.188 C 117.730 94.676,119.014 95.966,119.386 96.500 L 119.676 96.917 119.479 96.504 C 119.192 95.905,117.784 94.466,117.138 94.113 L 116.583 93.810 117.083 94.188 M15.825 96.183 C 15.634 96.558,15.505 96.894,15.540 96.929 C 15.575 96.964,15.767 96.657,15.966 96.246 C 16.421 95.311,16.298 95.256,15.825 96.183 M119.964 97.689 C 120.113 98.068,120.262 98.298,120.294 98.201 C 120.351 98.029,119.893 97.000,119.759 97.000 C 119.723 97.000,119.815 97.310,119.964 97.689 M15.216 97.605 C 14.994 98.405,15.059 101.707,15.305 102.083 C 15.511 102.398,15.517 102.393,15.420 102.000 C 15.186 101.059,15.128 98.828,15.318 98.075 C 15.530 97.234,15.438 96.810,15.216 97.605 M31.467 97.750 C 31.622 98.639,31.615 100.919,31.455 101.750 C 31.349 102.300,31.361 102.360,31.524 102.092 C 31.844 101.562,31.898 98.709,31.603 97.833 L 31.351 97.083 31.467 97.750 M104.506 97.734 C 104.174 98.608,104.159 99.069,104.489 98.260 C 104.674 97.807,104.792 97.403,104.751 97.362 C 104.710 97.321,104.599 97.488,104.506 97.734 M120.583 100.851 C 120.583 101.769,120.632 102.347,120.692 102.135 C 120.836 101.623,120.839 99.824,120.697 99.466 C 120.634 99.309,120.583 99.933,120.583 100.851 M104.167 102.839 C 104.167 103.076,104.631 104.167,104.731 104.167 C 104.776 104.167,104.698 103.829,104.558 103.417 C 104.311 102.693,104.167 102.480,104.167 102.839 M15.667 102.931 C 15.668 103.136,16.302 104.167,16.428 104.167 C 16.482 104.167,16.358 103.885,16.151 103.542 C 15.685 102.766,15.667 102.743,15.667 102.931 M30.768 103.403 C 30.616 103.722,30.299 104.213,30.064 104.493 C 29.829 104.772,29.741 104.961,29.869 104.912 C 30.140 104.808,31.255 103.032,31.128 102.906 C 31.082 102.860,30.920 103.083,30.768 103.403 M119.805 104.143 C 119.401 104.985,118.864 105.751,118.222 106.402 C 117.639 106.993,117.456 107.246,117.766 107.034 C 118.662 106.420,119.850 104.800,120.263 103.629 C 120.638 102.567,120.473 102.753,119.805 104.143 M16.640 104.616 C 16.994 105.278,19.042 106.851,19.833 107.069 C 20.063 107.132,19.809 106.939,19.270 106.639 C 18.731 106.340,17.878 105.686,17.374 105.186 C 16.871 104.687,16.540 104.430,16.640 104.616 M104.981 104.750 C 105.263 105.332,105.895 106.091,106.583 106.675 C 107.145 107.152,107.106 107.081,106.333 106.225 C 105.829 105.666,105.282 105.031,105.118 104.813 C 104.907 104.533,104.867 104.514,104.981 104.750 M28.931 105.677 C 28.611 105.957,27.952 106.412,27.466 106.687 C 26.981 106.962,26.771 107.134,27.000 107.071 C 27.590 106.906,29.969 105.190,29.631 105.173 C 29.565 105.169,29.250 105.396,28.931 105.677 M107.333 107.244 C 107.333 107.375,108.354 108.035,108.433 107.956 C 108.478 107.911,108.249 107.718,107.924 107.526 C 107.599 107.335,107.333 107.208,107.333 107.244 M21.250 107.584 C 21.617 107.707,22.592 107.808,23.417 107.808 C 24.242 107.808,25.217 107.707,25.583 107.584 L 26.250 107.360 25.500 107.472 C 25.087 107.533,24.150 107.583,23.417 107.583 C 22.683 107.583,21.746 107.533,21.333 107.472 L 20.583 107.360 21.250 107.584 M116.417 107.754 C 116.050 107.980,115.816 108.165,115.897 108.166 C 116.068 108.167,117.167 107.507,117.167 107.403 C 117.167 107.297,117.134 107.313,116.417 107.754 M109.250 108.330 C 109.617 108.511,110.067 108.655,110.250 108.651 C 110.464 108.646,110.374 108.566,110.000 108.429 C 108.960 108.046,108.567 107.995,109.250 108.330 M114.750 108.412 C 114.383 108.533,114.233 108.636,114.417 108.642 C 114.600 108.647,114.975 108.549,115.250 108.423 C 115.885 108.132,115.617 108.126,114.750 108.412 M66.360 109.364 C 65.293 109.602,65.616 109.696,66.763 109.481 C 67.306 109.380,68.350 109.335,69.083 109.382 C 69.873 109.433,70.213 109.414,69.917 109.337 C 69.221 109.155,67.228 109.170,66.360 109.364 M64.683 109.926 C 64.371 110.061,64.158 110.214,64.209 110.265 C 64.260 110.316,64.590 110.205,64.943 110.019 C 65.686 109.627,65.514 109.565,64.683 109.926 M71.206 109.758 C 71.274 109.828,71.649 110.028,72.040 110.202 C 72.430 110.377,72.675 110.444,72.583 110.352 C 72.492 110.260,72.117 110.060,71.750 109.908 C 71.383 109.756,71.139 109.689,71.206 109.758 M63.045 110.980 C 62.140 111.696,60.997 112.961,61.005 113.238 C 61.008 113.336,61.173 113.192,61.372 112.917 C 61.836 112.275,62.942 111.170,63.583 110.706 C 63.858 110.507,64.034 110.342,63.973 110.339 C 63.913 110.336,63.495 110.624,63.045 110.980 M72.833 110.563 C 72.833 110.605,73.199 110.907,73.645 111.234 C 74.092 111.562,74.742 112.244,75.090 112.749 C 75.802 113.783,75.974 113.922,75.567 113.135 C 75.136 112.301,72.833 110.135,72.833 110.563 M60.575 114.015 C 60.429 114.299,60.350 114.572,60.400 114.622 C 60.450 114.672,60.570 114.504,60.667 114.249 C 60.764 113.994,60.883 113.721,60.932 113.643 C 60.980 113.564,60.980 113.500,60.931 113.500 C 60.882 113.500,60.722 113.732,60.575 114.015 M75.852 113.833 C 75.847 113.879,75.985 114.329,76.160 114.833 C 76.334 115.337,76.480 115.600,76.484 115.417 C 76.490 115.133,75.877 113.597,75.852 113.833 M59.938 115.875 C 59.805 116.373,59.827 118.342,59.970 118.702 C 60.032 118.858,60.084 118.202,60.085 117.243 C 60.088 115.344,60.086 115.326,59.938 115.875 M76.265 119.500 C 75.926 121.011,74.101 123.341,72.683 124.075 C 72.382 124.231,72.175 124.397,72.223 124.445 C 72.852 125.075,76.706 120.333,76.464 119.227 C 76.417 119.015,76.354 119.102,76.265 119.500 M60.523 120.495 C 60.620 120.773,60.764 121.041,60.843 121.089 C 60.922 121.138,60.907 120.950,60.810 120.672 C 60.713 120.394,60.569 120.126,60.490 120.077 C 60.411 120.029,60.426 120.216,60.523 120.495 M61.184 121.667 C 61.714 122.755,63.989 124.531,65.333 124.906 C 65.563 124.970,65.217 124.751,64.566 124.419 C 63.401 123.825,62.089 122.734,61.355 121.750 C 61.052 121.344,61.020 121.328,61.184 121.667 M70.917 124.833 C 70.458 125.002,70.233 125.145,70.417 125.149 C 70.600 125.154,71.050 125.016,71.417 124.842 C 72.268 124.440,71.997 124.435,70.917 124.833 " stroke="none" fill="#bd9fd1" fill-rule="evenodd"></path></g></svg>