<?xml version="1.0" standalone="no"?>
<!DOCTYPE svg PUBLIC "-//W3C//DTD SVG 20010904//EN"
 "http://www.w3.org/TR/2001/REC-SVG-20010904/DTD/svg10.dtd">
<svg version="1.0" xmlns="http://www.w3.org/2000/svg"
 width="794.000000pt" height="714.000000pt" viewBox="0 0 794.000000 714.000000"
 preserveAspectRatio="xMidYMid meet">
<metadata>
Created by potrace 1.16, written by Peter Selinger 2001-2019
</metadata>
<g transform="translate(0.000000,714.000000) scale(0.100000,-0.100000)"
fill="#000000" stroke="none">
<path d="M3594 6500 c-104 -21 -219 -108 -267 -202 -74 -147 -52 -307 58 -426
115 -124 279 -161 442 -101 66 25 159 109 195 176 153 286 -103 617 -428 553z"/>
<path d="M5850 5899 c-98 -19 -204 -95 -257 -186 -159 -271 85 -608 403 -555
135 22 241 101 298 222 27 57 31 76 31 150 0 75 -4 93 -32 152 -79 167 -256
254 -443 217z"/>
<path d="M1484 5850 c-71 -14 -137 -52 -200 -115 -79 -78 -107 -147 -107 -260
0 -106 27 -176 98 -253 191 -207 522 -158 647 96 30 60 33 74 33 157 0 82 -4
98 -32 156 -82 167 -258 255 -439 219z"/>
<path d="M3596 4834 c-70 -22 -139 -94 -156 -162 -9 -42 -9 -62 0 -104 17 -71
86 -140 161 -162 66 -20 92 -20 160 0 71 21 139 89 159 158 31 112 -41 235
-159 270 -66 19 -101 19 -165 0z"/>
<path d="M4562 4685 c-178 -55 -226 -278 -85 -394 41 -34 116 -61 169 -61 51
0 137 36 171 72 49 52 67 96 67 163 0 105 -65 189 -168 220 -60 18 -97 18
-154 0z"/>
<path d="M2721 4629 c-89 -27 -152 -94 -172 -184 -25 -113 49 -236 162 -269
65 -20 93 -20 153 -2 62 19 110 56 143 113 22 38 27 59 27 113 0 100 -51 178
-143 216 -46 19 -129 26 -170 13z"/>
<path d="M830 4139 c-104 -20 -211 -101 -266 -201 -25 -47 -29 -66 -32 -156
-4 -100 -3 -105 28 -169 98 -200 337 -278 538 -176 150 76 236 248 202 402
-34 153 -140 261 -289 295 -76 17 -113 18 -181 5z"/>
<path d="M6484 4110 c-64 -13 -131 -49 -188 -101 -156 -142 -165 -372 -21
-527 150 -163 394 -174 553 -27 68 62 105 127 122 209 54 263 -193 500 -466
446z"/>
<path d="M4970 3955 c-100 -31 -164 -117 -164 -220 0 -105 65 -189 168 -220
63 -19 90 -19 154 0 223 67 222 373 -2 440 -60 18 -97 18 -156 0z"/>
<path d="M2388 3947 c-182 -51 -234 -278 -91 -396 39 -32 116 -61 163 -61 48
0 130 30 166 62 128 113 95 318 -62 384 -48 20 -125 25 -176 11z"/>
<path d="M4569 3173 c-52 -8 -132 -66 -163 -116 -52 -85 -37 -208 36 -273 124
-114 329 -85 408 56 46 83 27 204 -42 266 -56 52 -161 81 -239 67z"/>
<path d="M2712 3135 c-178 -55 -226 -278 -85 -394 39 -32 116 -61 163 -61 48
0 130 30 166 62 53 47 78 102 78 173 0 105 -65 189 -168 220 -60 18 -97 18
-154 0z"/>
<path d="M3628 2866 c-181 -49 -233 -277 -91 -395 39 -32 116 -61 163 -61 48
0 130 30 166 62 53 47 78 102 78 173 0 105 -65 189 -168 220 -59 18 -85 18
-148 1z"/>
<path d="M1481 2229 c-67 -13 -131 -48 -190 -103 -121 -115 -151 -276 -81
-425 139 -294 574 -288 714 9 27 57 31 76 31 150 0 75 -4 93 -32 152 -78 166
-256 254 -442 217z"/>
<path d="M5683 2179 c-71 -14 -130 -45 -189 -101 -230 -218 -114 -581 205
-640 168 -31 349 61 422 216 133 282 -122 588 -438 525z"/>
<path d="M3600 1399 c-112 -22 -226 -115 -278 -226 -22 -49 -27 -72 -27 -143
0 -75 4 -93 32 -152 142 -301 575 -299 717 2 27 57 31 76 31 150 0 75 -4 93
-32 152 -79 167 -256 254 -443 217z"/>
</g>
</svg>
