<?xml version="1.0" standalone="no"?>
<!DOCTYPE svg PUBLIC "-//W3C//DTD SVG 20010904//EN"
 "http://www.w3.org/TR/2001/REC-SVG-20010904/DTD/svg10.dtd">
<svg version="1.0" xmlns="http://www.w3.org/2000/svg"
 width="803.000000pt" height="292.000000pt" viewBox="0 0 803.000000 292.000000"
 preserveAspectRatio="xMidYMid meet">
<metadata>
Created by potrace 1.16, written by Peter Selinger 2001-2019
</metadata>
<g transform="translate(0.000000,292.000000) scale(0.100000,-0.100000)"
fill="#000000" stroke="none">
<path d="M1494 2754 c-140 -47 -146 -243 -10 -305 151 -69 301 84 226 230 -35
70 -133 104 -216 75z"/>
<path d="M2504 2481 c-77 -35 -117 -117 -94 -193 39 -133 220 -165 305 -55 48
64 45 143 -8 204 -56 63 -126 79 -203 44z"/>
<path d="M565 2471 c-91 -22 -148 -114 -125 -202 52 -193 340 -159 340 41 0
73 -52 139 -128 160 -41 11 -44 11 -87 1z"/>
<path d="M1492 1995 c-60 -50 -46 -132 26 -162 67 -28 137 10 149 80 5 32 1
41 -30 72 -45 45 -99 49 -145 10z"/>
<path d="M1932 1934 c-110 -76 2 -236 118 -167 89 52 52 183 -52 183 -24 0
-54 -7 -66 -16z"/>
<path d="M1113 1915 c-100 -43 -64 -195 47 -195 113 0 148 153 45 196 -42 17
-51 17 -92 -1z"/>
<path d="M6484 1810 c-38 -15 -71 -66 -82 -126 -10 -53 -27 -192 -66 -551 -16
-150 -15 -153 74 -153 63 0 71 2 80 23 6 12 23 155 40 317 17 162 34 298 38
302 18 18 30 -24 76 -257 63 -320 69 -341 109 -365 39 -24 134 -27 176 -6 15
8 35 29 44 48 9 18 40 152 68 298 50 256 63 300 80 283 5 -5 20 -117 34 -248
13 -132 28 -268 31 -303 9 -84 20 -94 103 -90 l66 3 3 41 c4 60 -67 672 -82
708 -25 58 -59 80 -133 84 -139 9 -160 -26 -228 -378 -47 -241 -61 -285 -82
-258 -5 7 -33 130 -62 272 -54 271 -71 320 -121 349 -30 18 -129 22 -166 7z"/>
<path d="M3432 1798 c-17 -17 -17 -789 0 -806 14 -14 126 -16 148 -2 13 8 15
65 18 391 3 450 8 429 -91 429 -36 0 -68 -5 -75 -12z"/>
<path d="M7535 1794 c-14 -14 -15 -59 -13 -405 3 -333 5 -391 18 -399 22 -14
134 -12 148 2 17 17 17 789 0 806 -19 19 -133 15 -153 -4z"/>
<path d="M4570 1740 c-13 -8 -15 -53 -15 -302 0 -316 3 -341 53 -400 41 -48
94 -68 187 -68 142 0 185 27 170 106 -7 40 -21 45 -95 37 -71 -7 -114 8 -129
46 -7 16 -11 80 -9 166 l3 140 107 5 c58 3 109 8 113 12 4 3 9 24 12 46 4 32
1 44 -16 61 -19 19 -33 21 -121 21 l-100 0 0 51 c0 79 -10 89 -83 89 -34 0
-69 -5 -77 -10z"/>
<path d="M5852 1738 c-15 -15 -17 -565 -2 -619 16 -57 51 -102 100 -127 41
-21 55 -23 152 -20 129 5 148 16 148 84 0 24 -6 46 -12 51 -7 4 -51 8 -96 8
-120 0 -122 3 -122 200 l0 153 101 0 c63 1 106 5 115 13 8 7 14 29 14 55 0 62
-21 74 -136 74 l-92 0 -4 54 c-6 76 -17 86 -92 86 -35 0 -67 -5 -74 -12z"/>
<path d="M257 1696 c-74 -27 -107 -76 -107 -158 0 -153 178 -221 292 -111 62
60 62 162 -1 224 -33 33 -92 60 -131 59 -8 -1 -32 -7 -53 -14z"/>
<path d="M2769 1667 c-103 -70 -108 -206 -8 -279 65 -49 153 -41 219 18 82 74
68 195 -30 262 -46 31 -134 31 -181 -1z"/>
<path d="M2134 1616 c-66 -29 -84 -101 -38 -155 48 -58 145 -47 179 20 43 82
-53 174 -141 135z"/>
<path d="M938 1591 c-70 -62 -24 -171 73 -171 33 0 47 6 75 34 46 46 46 86 0
132 -46 46 -101 48 -148 5z"/>
<path d="M3979 1607 c-84 -19 -132 -55 -166 -124 -27 -57 -28 -62 -32 -259 -2
-138 1 -208 8 -223 10 -18 21 -21 76 -21 94 0 95 2 95 228 0 243 10 262 143
262 122 0 137 -30 137 -283 0 -129 4 -187 12 -195 17 -17 133 -16 147 2 9 11
12 74 9 233 -3 201 -5 221 -25 258 -29 55 -70 91 -123 110 -60 22 -210 28
-281 12z"/>
<path d="M5100 1603 c-8 -3 -18 -11 -22 -17 -4 -6 -8 -99 -8 -207 0 -230 10
-282 69 -340 55 -55 125 -72 270 -67 131 5 175 21 229 82 47 54 55 92 59 313
5 194 4 202 -16 222 -16 16 -34 21 -69 21 -87 0 -86 1 -92 -234 l-5 -206 -27
-27 c-23 -22 -38 -28 -91 -31 -47 -3 -73 0 -96 13 -53 27 -61 60 -61 269 0
180 -1 185 -22 200 -22 16 -88 20 -118 9z"/>
<path d="M1928 1254 c-57 -31 -66 -107 -19 -155 77 -77 220 5 182 104 -22 56
-106 83 -163 51z"/>
<path d="M1113 1245 c-32 -14 -63 -59 -63 -92 0 -34 37 -81 74 -93 28 -9 44
-9 72 0 37 12 74 59 74 93 0 34 -31 79 -65 93 -42 17 -51 17 -92 -1z"/>
<path d="M1504 1112 c-50 -40 -57 -95 -18 -141 50 -60 147 -48 180 23 20 41
14 74 -22 109 -21 22 -36 27 -73 27 -28 0 -54 -7 -67 -18z"/>
<path d="M545 835 c-114 -40 -147 -185 -61 -271 58 -58 149 -67 217 -21 120
81 101 241 -36 294 -40 15 -72 15 -120 -2z"/>
<path d="M2465 820 c-42 -9 -65 -23 -99 -59 -25 -26 -30 -42 -34 -91 -4 -53
-1 -65 22 -101 67 -100 216 -103 287 -6 87 120 -29 291 -176 257z"/>
<path d="M1485 454 c-65 -33 -95 -82 -95 -151 1 -131 169 -210 275 -128 133
100 65 295 -102 295 -26 0 -61 -7 -78 -16z"/>
</g>
</svg>
